<?xml version="1.0" encoding="UTF-8" standalone="no"?>
<svg
   width="36in"
   height="24in"
   viewBox="0 0 914.4 609.6"
   version="1.1"
   id="svg31"
   sodipodi:docname="ABCrafty_UniversalBox.svg"
   inkscape:version="1.4 (e7c3feb1, 2024-10-09)"
   xmlns:inkscape="http://www.inkscape.org/namespaces/inkscape"
   xmlns:sodipodi="http://sodipodi.sourceforge.net/DTD/sodipodi-0.dtd"
   xmlns="http://www.w3.org/2000/svg"
   xmlns:svg="http://www.w3.org/2000/svg"
   xmlns:rdf="http://www.w3.org/1999/02/22-rdf-syntax-ns#"
   xmlns:cc="http://creativecommons.org/ns#"
   xmlns:dc="http://purl.org/dc/elements/1.1/">
  <defs
     id="defs31" />
  <sodipodi:namedview
     id="namedview31"
     pagecolor="#ffffff"
     bordercolor="#000000"
     borderopacity="0.25"
     inkscape:showpageshadow="2"
     inkscape:pageopacity="0.0"
     inkscape:pagecheckerboard="0"
     inkscape:deskcolor="#d1d1d1"
     inkscape:document-units="mm"
     showguides="true"
     inkscape:zoom="0.41460346"
     inkscape:cx="1069.6968"
     inkscape:cy="931.01008"
     inkscape:window-width="1512"
     inkscape:window-height="841"
     inkscape:window-x="0"
     inkscape:window-y="38"
     inkscape:window-maximized="0"
     inkscape:current-layer="p-2" />
  <!--
UniversalBox - Box with various options for different styles and lids

Created with Boxes.py (https://festi.info/boxes.py)
Creation date: 2023-02-19 21:26:59
Command line (remove spaces between dashes): boxes UniversalBox - -FingerJoint_angle=90.0 - -FingerJoint_style=rectangular - -FingerJoint_surroundingspaces=2.0 - -FingerJoint_bottom_lip=0.0 - -FingerJoint_edge_width=1.0 - -FingerJoint_extra_length=0.0 - -FingerJoint_finger=2.0 - -FingerJoint_play=0.0 - -FingerJoint_space=2.0 - -FingerJoint_width=1.0 - -Stackable_angle=60 - -Stackable_bottom_stabilizers=0.0 - -Stackable_height=2.0 - -Stackable_holedistance=1.0 - -Stackable_width=4.0 - -Hinge_grip_percentage=0 - -Hinge_outset=0 - -Hinge_outset=1 - -Hinge_pinwidth=0.5 - -Hinge_style=outset - -Hinge_axle=2.0 - -Hinge_grip_length=0 - -Hinge_hingestrength=1 - -CabinetHinge_bore=3.2 - -CabinetHinge_eyes_per_hinge=5 - -CabinetHinge_hinges=2 - -CabinetHinge_style=inside - -CabinetHinge_eye=1.5 - -CabinetHinge_play=0.05 - -CabinetHinge_spacing=2.0 - -Lid_angle=90.0 - -Lid_hole_width=0 - -Lid_second_pin=0 - -Lid_second_pin=1 - -Lid_spring=both - -Lid_style=rectangular - -Lid_surroundingspaces=2.0 - -Lid_bottom_lip=0.0 - -Lid_edge_width=1.0 - -Lid_extra_length=0.0 - -Lid_finger=3.0 - -Lid_play=0.05 - -Lid_space=2.0 - -Lid_width=1.0 - -Click_angle=5.0 - -Click_bottom_radius=0.1 - -Click_depth=3.0 - -RoundedTriangleEdge_height=50.0 - -RoundedTriangleEdge_r_hole=2.0 - -RoundedTriangleEdge_radius=30.0 - -RoundedTriangleEdge_outset=1.0 - -Mounting_d_head=6.5 - -Mounting_d_shaft=3.0 - -Mounting_margin=0.125 - -Mounting_num=2 - -Mounting_side=back '- -Mounting_style=straight edge, within' - -HandleEdge_height=20.0 - -HandleEdge_hole_height=75.0 - -HandleEdge_hole_width=40:40 - -HandleEdge_on_sides=0 - -HandleEdge_on_sides=1 - -HandleEdge_radius=10.0 - -HandleEdge_outset=1.0 - -Flex_stretch=1.05 - -Flex_connection=1.0 - -Flex_distance=0.5 - -Flex_width=5.0 - -top_edge=i - -bottom_edge=h - -x=76 - -y=76 - -h=76 - -outside=0 - -outside=1 '- -vertical_edges=finger joints' - -lid=flat - -thickness=3.0 - -format=svg - -tabs=0.0 - -debug=0 - -labels=0 - -labels=1 - -reference=100 - -inner_corners=loop - -burn=0.1
Url: http://www.festi.info/boxes.py/UniversalBox?FingerJoint_angle=90.0&FingerJoint_style=rectangular&FingerJoint_surroundingspaces=2.0&FingerJoint_bottom_lip=0.0&FingerJoint_edge_width=1.0&FingerJoint_extra_length=0.0&FingerJoint_finger=2.0&FingerJoint_play=0.0&FingerJoint_space=2.0&FingerJoint_width=1.0&Stackable_angle=60&Stackable_bottom_stabilizers=0.0&Stackable_height=2.0&Stackable_holedistance=1.0&Stackable_width=4.0&Hinge_grip_percentage=0&Hinge_outset=0&Hinge_outset=1&Hinge_pinwidth=0.5&Hinge_style=outset&Hinge_axle=2.0&Hinge_grip_length=0&Hinge_hingestrength=1&CabinetHinge_bore=3.2&CabinetHinge_eyes_per_hinge=5&CabinetHinge_hinges=2&CabinetHinge_style=inside&CabinetHinge_eye=1.5&CabinetHinge_play=0.05&CabinetHinge_spacing=2.0&Lid_angle=90.0&Lid_hole_width=0&Lid_second_pin=0&Lid_second_pin=1&Lid_spring=both&Lid_style=rectangular&Lid_surroundingspaces=2.0&Lid_bottom_lip=0.0&Lid_edge_width=1.0&Lid_extra_length=0.0&Lid_finger=3.0&Lid_play=0.05&Lid_space=2.0&Lid_width=1.0&Click_angle=5.0&Click_bottom_radius=0.1&Click_depth=3.0&RoundedTriangleEdge_height=50.0&RoundedTriangleEdge_r_hole=2.0&RoundedTriangleEdge_radius=30.0&RoundedTriangleEdge_outset=1.0&Mounting_d_head=6.5&Mounting_d_shaft=3.0&Mounting_margin=0.125&Mounting_num=2&Mounting_side=back&Mounting_style=straight+edge%2C+within&HandleEdge_height=20.0&HandleEdge_hole_height=75.0&HandleEdge_hole_width=40%3A40&HandleEdge_on_sides=0&HandleEdge_on_sides=1&HandleEdge_radius=10.0&HandleEdge_outset=1.0&Flex_stretch=1.05&Flex_connection=1.0&Flex_distance=0.5&Flex_width=5.0&top_edge=i&bottom_edge=h&x=76&y=76&h=76&outside=0&outside=1&vertical_edges=finger+joints&lid=flat&thickness=3.0&format=svg&tabs=0.0&debug=0&labels=0&labels=1&reference=100&inner_corners=loop&burn=0.1&render=2
SettingsUrl: http://www.festi.info/boxes.py/UniversalBox?FingerJoint_angle=90.0&FingerJoint_style=rectangular&FingerJoint_surroundingspaces=2.0&FingerJoint_bottom_lip=0.0&FingerJoint_edge_width=1.0&FingerJoint_extra_length=0.0&FingerJoint_finger=2.0&FingerJoint_play=0.0&FingerJoint_space=2.0&FingerJoint_width=1.0&Stackable_angle=60&Stackable_bottom_stabilizers=0.0&Stackable_height=2.0&Stackable_holedistance=1.0&Stackable_width=4.0&Hinge_grip_percentage=0&Hinge_outset=0&Hinge_outset=1&Hinge_pinwidth=0.5&Hinge_style=outset&Hinge_axle=2.0&Hinge_grip_length=0&Hinge_hingestrength=1&CabinetHinge_bore=3.2&CabinetHinge_eyes_per_hinge=5&CabinetHinge_hinges=2&CabinetHinge_style=inside&CabinetHinge_eye=1.5&CabinetHinge_play=0.05&CabinetHinge_spacing=2.0&Lid_angle=90.0&Lid_hole_width=0&Lid_second_pin=0&Lid_second_pin=1&Lid_spring=both&Lid_style=rectangular&Lid_surroundingspaces=2.0&Lid_bottom_lip=0.0&Lid_edge_width=1.0&Lid_extra_length=0.0&Lid_finger=3.0&Lid_play=0.05&Lid_space=2.0&Lid_width=1.0&Click_angle=5.0&Click_bottom_radius=0.1&Click_depth=3.0&RoundedTriangleEdge_height=50.0&RoundedTriangleEdge_r_hole=2.0&RoundedTriangleEdge_radius=30.0&RoundedTriangleEdge_outset=1.0&Mounting_d_head=6.5&Mounting_d_shaft=3.0&Mounting_margin=0.125&Mounting_num=2&Mounting_side=back&Mounting_style=straight+edge%2C+within&HandleEdge_height=20.0&HandleEdge_hole_height=75.0&HandleEdge_hole_width=40%3A40&HandleEdge_on_sides=0&HandleEdge_on_sides=1&HandleEdge_radius=10.0&HandleEdge_outset=1.0&Flex_stretch=1.05&Flex_connection=1.0&Flex_distance=0.5&Flex_width=5.0&top_edge=i&bottom_edge=h&x=76&y=76&h=76&outside=0&outside=1&vertical_edges=finger+joints&lid=flat&thickness=3.0&format=svg&tabs=0.0&debug=0&labels=0&labels=1&reference=100&inner_corners=loop&burn=0.1&render=2
-->
  <title
     id="title1">UniversalBox</title>
  <metadata
     id="metadata1">
    <rdf:RDF>
      <cc:Work>
        <dc:title>Box - UniversalBox</dc:title>
        <dc:date>2023-02-19 21:26:59</dc:date>
        <dc:source>http://www.festi.info/boxes.py/UniversalBox?FingerJoint_angle=90.0&amp;FingerJoint_style=rectangular&amp;FingerJoint_surroundingspaces=2.0&amp;FingerJoint_bottom_lip=0.0&amp;FingerJoint_edge_width=1.0&amp;FingerJoint_extra_length=0.0&amp;FingerJoint_finger=2.0&amp;FingerJoint_play=0.0&amp;FingerJoint_space=2.0&amp;FingerJoint_width=1.0&amp;Stackable_angle=60&amp;Stackable_bottom_stabilizers=0.0&amp;Stackable_height=2.0&amp;Stackable_holedistance=1.0&amp;Stackable_width=4.0&amp;Hinge_grip_percentage=0&amp;Hinge_outset=0&amp;Hinge_outset=1&amp;Hinge_pinwidth=0.5&amp;Hinge_style=outset&amp;Hinge_axle=2.0&amp;Hinge_grip_length=0&amp;Hinge_hingestrength=1&amp;CabinetHinge_bore=3.2&amp;CabinetHinge_eyes_per_hinge=5&amp;CabinetHinge_hinges=2&amp;CabinetHinge_style=inside&amp;CabinetHinge_eye=1.5&amp;CabinetHinge_play=0.05&amp;CabinetHinge_spacing=2.0&amp;Lid_angle=90.0&amp;Lid_hole_width=0&amp;Lid_second_pin=0&amp;Lid_second_pin=1&amp;Lid_spring=both&amp;Lid_style=rectangular&amp;Lid_surroundingspaces=2.0&amp;Lid_bottom_lip=0.0&amp;Lid_edge_width=1.0&amp;Lid_extra_length=0.0&amp;Lid_finger=3.0&amp;Lid_play=0.05&amp;Lid_space=2.0&amp;Lid_width=1.0&amp;Click_angle=5.0&amp;Click_bottom_radius=0.1&amp;Click_depth=3.0&amp;RoundedTriangleEdge_height=50.0&amp;RoundedTriangleEdge_r_hole=2.0&amp;RoundedTriangleEdge_radius=30.0&amp;RoundedTriangleEdge_outset=1.0&amp;Mounting_d_head=6.5&amp;Mounting_d_shaft=3.0&amp;Mounting_margin=0.125&amp;Mounting_num=2&amp;Mounting_side=back&amp;Mounting_style=straight+edge%2C+within&amp;HandleEdge_height=20.0&amp;HandleEdge_hole_height=75.0&amp;HandleEdge_hole_width=40%3A40&amp;HandleEdge_on_sides=0&amp;HandleEdge_on_sides=1&amp;HandleEdge_radius=10.0&amp;HandleEdge_outset=1.0&amp;Flex_stretch=1.05&amp;Flex_connection=1.0&amp;Flex_distance=0.5&amp;Flex_width=5.0&amp;top_edge=i&amp;bottom_edge=h&amp;x=76&amp;y=76&amp;h=76&amp;outside=0&amp;outside=1&amp;vertical_edges=finger+joints&amp;lid=flat&amp;thickness=3.0&amp;format=svg&amp;tabs=0.0&amp;debug=0&amp;labels=0&amp;labels=1&amp;reference=100&amp;inner_corners=loop&amp;burn=0.1&amp;render=2</dc:source>
        <dc:description>Box with various options for different styles and lids

Created with Boxes.py (https://festi.info/boxes.py)
Command line: boxes UniversalBox --FingerJoint_angle=90.0 --FingerJoint_style=rectangular --FingerJoint_surroundingspaces=2.0 --FingerJoint_bottom_lip=0.0 --FingerJoint_edge_width=1.0 --FingerJoint_extra_length=0.0 --FingerJoint_finger=2.0 --FingerJoint_play=0.0 --FingerJoint_space=2.0 --FingerJoint_width=1.0 --Stackable_angle=60 --Stackable_bottom_stabilizers=0.0 --Stackable_height=2.0 --Stackable_holedistance=1.0 --Stackable_width=4.0 --Hinge_grip_percentage=0 --Hinge_outset=0 --Hinge_outset=1 --Hinge_pinwidth=0.5 --Hinge_style=outset --Hinge_axle=2.0 --Hinge_grip_length=0 --Hinge_hingestrength=1 --CabinetHinge_bore=3.2 --CabinetHinge_eyes_per_hinge=5 --CabinetHinge_hinges=2 --CabinetHinge_style=inside --CabinetHinge_eye=1.5 --CabinetHinge_play=0.05 --CabinetHinge_spacing=2.0 --Lid_angle=90.0 --Lid_hole_width=0 --Lid_second_pin=0 --Lid_second_pin=1 --Lid_spring=both --Lid_style=rectangular --Lid_surroundingspaces=2.0 --Lid_bottom_lip=0.0 --Lid_edge_width=1.0 --Lid_extra_length=0.0 --Lid_finger=3.0 --Lid_play=0.05 --Lid_space=2.0 --Lid_width=1.0 --Click_angle=5.0 --Click_bottom_radius=0.1 --Click_depth=3.0 --RoundedTriangleEdge_height=50.0 --RoundedTriangleEdge_r_hole=2.0 --RoundedTriangleEdge_radius=30.0 --RoundedTriangleEdge_outset=1.0 --Mounting_d_head=6.5 --Mounting_d_shaft=3.0 --Mounting_margin=0.125 --Mounting_num=2 --Mounting_side=back '--Mounting_style=straight edge, within' --HandleEdge_height=20.0 --HandleEdge_hole_height=75.0 --HandleEdge_hole_width=40:40 --HandleEdge_on_sides=0 --HandleEdge_on_sides=1 --HandleEdge_radius=10.0 --HandleEdge_outset=1.0 --Flex_stretch=1.05 --Flex_connection=1.0 --Flex_distance=0.5 --Flex_width=5.0 --top_edge=i --bottom_edge=h --x=76 --y=76 --h=76 --outside=0 --outside=1 '--vertical_edges=finger joints' --lid=flat --thickness=3.0 --format=svg --tabs=0.0 --debug=0 --labels=0 --labels=1 --reference=100 --inner_corners=loop --burn=0.1
Url: http://www.festi.info/boxes.py/UniversalBox?FingerJoint_angle=90.0&amp;FingerJoint_style=rectangular&amp;FingerJoint_surroundingspaces=2.0&amp;FingerJoint_bottom_lip=0.0&amp;FingerJoint_edge_width=1.0&amp;FingerJoint_extra_length=0.0&amp;FingerJoint_finger=2.0&amp;FingerJoint_play=0.0&amp;FingerJoint_space=2.0&amp;FingerJoint_width=1.0&amp;Stackable_angle=60&amp;Stackable_bottom_stabilizers=0.0&amp;Stackable_height=2.0&amp;Stackable_holedistance=1.0&amp;Stackable_width=4.0&amp;Hinge_grip_percentage=0&amp;Hinge_outset=0&amp;Hinge_outset=1&amp;Hinge_pinwidth=0.5&amp;Hinge_style=outset&amp;Hinge_axle=2.0&amp;Hinge_grip_length=0&amp;Hinge_hingestrength=1&amp;CabinetHinge_bore=3.2&amp;CabinetHinge_eyes_per_hinge=5&amp;CabinetHinge_hinges=2&amp;CabinetHinge_style=inside&amp;CabinetHinge_eye=1.5&amp;CabinetHinge_play=0.05&amp;CabinetHinge_spacing=2.0&amp;Lid_angle=90.0&amp;Lid_hole_width=0&amp;Lid_second_pin=0&amp;Lid_second_pin=1&amp;Lid_spring=both&amp;Lid_style=rectangular&amp;Lid_surroundingspaces=2.0&amp;Lid_bottom_lip=0.0&amp;Lid_edge_width=1.0&amp;Lid_extra_length=0.0&amp;Lid_finger=3.0&amp;Lid_play=0.05&amp;Lid_space=2.0&amp;Lid_width=1.0&amp;Click_angle=5.0&amp;Click_bottom_radius=0.1&amp;Click_depth=3.0&amp;RoundedTriangleEdge_height=50.0&amp;RoundedTriangleEdge_r_hole=2.0&amp;RoundedTriangleEdge_radius=30.0&amp;RoundedTriangleEdge_outset=1.0&amp;Mounting_d_head=6.5&amp;Mounting_d_shaft=3.0&amp;Mounting_margin=0.125&amp;Mounting_num=2&amp;Mounting_side=back&amp;Mounting_style=straight+edge%2C+within&amp;HandleEdge_height=20.0&amp;HandleEdge_hole_height=75.0&amp;HandleEdge_hole_width=40%3A40&amp;HandleEdge_on_sides=0&amp;HandleEdge_on_sides=1&amp;HandleEdge_radius=10.0&amp;HandleEdge_outset=1.0&amp;Flex_stretch=1.05&amp;Flex_connection=1.0&amp;Flex_distance=0.5&amp;Flex_width=5.0&amp;top_edge=i&amp;bottom_edge=h&amp;x=76&amp;y=76&amp;h=76&amp;outside=0&amp;outside=1&amp;vertical_edges=finger+joints&amp;lid=flat&amp;thickness=3.0&amp;format=svg&amp;tabs=0.0&amp;debug=0&amp;labels=0&amp;labels=1&amp;reference=100&amp;inner_corners=loop&amp;burn=0.1&amp;render=2
SettingsUrl: http://www.festi.info/boxes.py/UniversalBox?FingerJoint_angle=90.0&amp;FingerJoint_style=rectangular&amp;FingerJoint_surroundingspaces=2.0&amp;FingerJoint_bottom_lip=0.0&amp;FingerJoint_edge_width=1.0&amp;FingerJoint_extra_length=0.0&amp;FingerJoint_finger=2.0&amp;FingerJoint_play=0.0&amp;FingerJoint_space=2.0&amp;FingerJoint_width=1.0&amp;Stackable_angle=60&amp;Stackable_bottom_stabilizers=0.0&amp;Stackable_height=2.0&amp;Stackable_holedistance=1.0&amp;Stackable_width=4.0&amp;Hinge_grip_percentage=0&amp;Hinge_outset=0&amp;Hinge_outset=1&amp;Hinge_pinwidth=0.5&amp;Hinge_style=outset&amp;Hinge_axle=2.0&amp;Hinge_grip_length=0&amp;Hinge_hingestrength=1&amp;CabinetHinge_bore=3.2&amp;CabinetHinge_eyes_per_hinge=5&amp;CabinetHinge_hinges=2&amp;CabinetHinge_style=inside&amp;CabinetHinge_eye=1.5&amp;CabinetHinge_play=0.05&amp;CabinetHinge_spacing=2.0&amp;Lid_angle=90.0&amp;Lid_hole_width=0&amp;Lid_second_pin=0&amp;Lid_second_pin=1&amp;Lid_spring=both&amp;Lid_style=rectangular&amp;Lid_surroundingspaces=2.0&amp;Lid_bottom_lip=0.0&amp;Lid_edge_width=1.0&amp;Lid_extra_length=0.0&amp;Lid_finger=3.0&amp;Lid_play=0.05&amp;Lid_space=2.0&amp;Lid_width=1.0&amp;Click_angle=5.0&amp;Click_bottom_radius=0.1&amp;Click_depth=3.0&amp;RoundedTriangleEdge_height=50.0&amp;RoundedTriangleEdge_r_hole=2.0&amp;RoundedTriangleEdge_radius=30.0&amp;RoundedTriangleEdge_outset=1.0&amp;Mounting_d_head=6.5&amp;Mounting_d_shaft=3.0&amp;Mounting_margin=0.125&amp;Mounting_num=2&amp;Mounting_side=back&amp;Mounting_style=straight+edge%2C+within&amp;HandleEdge_height=20.0&amp;HandleEdge_hole_height=75.0&amp;HandleEdge_hole_width=40%3A40&amp;HandleEdge_on_sides=0&amp;HandleEdge_on_sides=1&amp;HandleEdge_radius=10.0&amp;HandleEdge_outset=1.0&amp;Flex_stretch=1.05&amp;Flex_connection=1.0&amp;Flex_distance=0.5&amp;Flex_width=5.0&amp;top_edge=i&amp;bottom_edge=h&amp;x=76&amp;y=76&amp;h=76&amp;outside=0&amp;outside=1&amp;vertical_edges=finger+joints&amp;lid=flat&amp;thickness=3.0&amp;format=svg&amp;tabs=0.0&amp;debug=0&amp;labels=0&amp;labels=1&amp;reference=100&amp;inner_corners=loop&amp;burn=0.1&amp;render=2
</dc:description>
      </cc:Work>
    </rdf:RDF>
  </metadata>
  <g
     id="p-1"
     style="fill:none;stroke-linecap:round;stroke-linejoin:round;stroke-width:0.01584315;stroke-dasharray:none"
     transform="matrix(1.5704343,0,0,1.636683,266.02226,-292.49455)">
    <path
       d="m 24.4,396.8 h -2.9 c -0.1,0 0,0.1 0,0 V 394 c 0,-0.1 -0.1,0 0,0 h 5.8 c 0.1,0 0,-0.1 0,0 v 2.8 c 0,0.1 0.1,0 0,0 z"
       stroke="#0000ff"
       stroke-width="0.2"
       id="path2"
       style="stroke-width:0.01584315;stroke-dasharray:none" />
    <path
       d="m 36.4,396.8 h -2.9 c -0.1,0 0,0.1 0,0 V 394 c 0,-0.1 -0.1,0 0,0 h 5.8 c 0.1,0 0,-0.1 0,0 v 2.8 c 0,0.1 0.1,0 0,0 z"
       stroke="#0000ff"
       stroke-width="0.2"
       id="path3"
       style="stroke-width:0.01584315;stroke-dasharray:none" />
    <path
       d="m 48.4,396.8 h -2.9 c -0.1,0 0,0.1 0,0 V 394 c 0,-0.1 -0.1,0 0,0 h 5.8 c 0.1,0 0,-0.1 0,0 v 2.8 c 0,0.1 0.1,0 0,0 z"
       stroke="#0000ff"
       stroke-width="0.2"
       id="path4"
       style="stroke-width:0.01584315;stroke-dasharray:none" />
    <path
       d="m 60.4,396.8 h -2.9 c -0.1,0 0,0.1 0,0 V 394 c 0,-0.1 -0.1,0 0,0 h 5.8 c 0.1,0 0,-0.1 0,0 v 2.8 c 0,0.1 0.1,0 0,0 z"
       stroke="#0000ff"
       stroke-width="0.2"
       id="path5"
       style="stroke-width:0.01584315;stroke-dasharray:none" />
    <path
       d="m 72.4,396.8 h -2.9 c -0.1,0 0,0.1 0,0 V 394 c 0,-0.1 -0.1,0 0,0 h 5.8 c 0.1,0 0,-0.1 0,0 v 2.8 c 0,0.1 0.1,0 0,0 z"
       stroke="#0000ff"
       stroke-width="0.2"
       id="path6"
       style="stroke-width:0.01584315;stroke-dasharray:none" />
    <path
       d="m 13.4,400 h 70 3 c 0.055,0 0.1,-0.045 0.1,-0.1 v -6.5 c 0,-0.055 -0.045,-0.1 -0.1,-0.1 h -2.9 c -0.1,0 0,0.1 0,0 v -5.8 c 0,-0.1 -0.1,0 0,0 h 2.9 c 0.055,0 0.1,-0.045 0.1,-0.1 v -6 c 0,-0.055 -0.045,-0.1 -0.1,-0.1 h -2.9 c -0.1,0 0,0.1 0,0 v -5.8 c 0,-0.1 -0.1,0 0,0 h 2.9 c 0.055,0 0.1,-0.045 0.1,-0.1 v -6 c 0,-0.055 -0.045,-0.1 -0.1,-0.1 h -2.9 c -0.1,0 0,0.1 0,0 v -5.8 c 0,-0.1 -0.1,0 0,0 h 2.9 c 0.055,0 0.1,-0.045 0.1,-0.1 v -6 c 0,-0.055 -0.045,-0.1 -0.1,-0.1 h -2.9 c -0.1,0 0,0.1 0,0 v -5.8 c 0,-0.1 -0.1,0 0,0 h 2.9 c 0.055,0 0.1,-0.045 0.1,-0.1 v -6 c 0,-0.055 -0.045,-0.1 -0.1,-0.1 h -2.9 c -0.1,0 0,0.1 0,0 v -5.8 c 0,-0.1 -0.1,0 0,0 h 2.9 c 0.055,0 0.1,-0.045 0.1,-0.1 v -6.5 0.39277 V 331.4 c 0,-1 -0.263,-1.983 -0.763,-2.849 -0.501,-0.866 -1.22,-1.586 -2.086,-2.086 -0.866,-0.5 -1.849,-0.763 -2.849,-0.763 -1,0 -1.983,0.263 -2.849,0.763 -0.866,0.5 -1.586,1.22 -2.086,2.086 -0.5,0.866 -0.763,1.849 -0.763,2.849 0,0.246 -0.065,0.487 -0.188,0.7 -0.123,0.213 -0.299,0.39 -0.512,0.512 -0.213,0.123 -0.454,0.188 -0.7,0.188 H 13.4 h -3 c -0.055,0 -0.1,0.045 -0.1,0.1 v 6.5 c 0,0.055 0.045,0.1 0.1,0.1 h 2.9 c 0.1,0 0,-0.1 0,0 v 5.8 c 0,0.1 0.1,0 0,0 h -2.9 c -0.055,0 -0.1,0.045 -0.1,0.1 v 6 c 0,0.055 0.045,0.1 0.1,0.1 h 2.9 c 0.1,0 0,-0.1 0,0 v 5.8 c 0,0.1 0.1,0 0,0 h -2.9 c -0.055,0 -0.1,0.045 -0.1,0.1 v 6 c 0,0.055 0.045,0.1 0.1,0.1 h 2.9 c 0.1,0 0,-0.1 0,0 v 5.8 c 0,0.1 0.1,0 0,0 h -2.9 c -0.055,0 -0.1,0.045 -0.1,0.1 v 6 c 0,0.055 0.045,0.1 0.1,0.1 h 2.9 c 0.1,0 0,-0.1 0,0 v 5.8 c 0,0.1 0.1,0 0,0 h -2.9 c -0.055,0 -0.1,0.045 -0.1,0.1 v 6 c 0,0.055 0.045,0.1 0.1,0.1 h 2.9 c 0.1,0 0,-0.1 0,0 v 5.8 c 0,0.1 0.1,0 0,0 h -2.9 c -0.055,0 -0.1,0.045 -0.1,0.1 v 6.5 c 0,0.055 0.045,0.1 0.1,0.1 h 3"
       stroke="#000000"
       stroke-width="0.2"
       id="path7"
       style="stroke-width:0.0158431;stroke-dasharray:none"
       sodipodi:nodetypes="ccssssssssssssssssssssssssssssssssssssssssssccscsssssscscssssssssssssssssssssssssssssssssssssssssssssc" />
    <path
       d="m 80.802,329.9 h 1.199 c 0.1,0 0,-0.1 0,0 v 2.8 c 0,0.1 0.1,0 0,0 h -2.398 c -0.1,0 0,0.1 0,0 v -2.8 c 0,-0.1 -0.1,0 0,0 z"
       stroke="#0000ff"
       stroke-width="0.2"
       id="path8"
       style="stroke-width:0.01584315;stroke-dasharray:none" />
  </g>
  <g
     id="p-2"
     style="fill:none;stroke-linecap:round;stroke-linejoin:round;stroke-width:0.0158419;stroke-dasharray:none"
     transform="matrix(1.5706776,0,0,1.636688,142.16004,-166.28383)">
    <path
       d="m 24.4,319.1 h -2.9 c -0.1,0 0,0.1 0,0 v -2.8 c 0,-0.1 -0.1,0 0,0 h 5.8 c 0.1,0 0,-0.1 0,0 v 2.8 c 0,0.1 0.1,0 0,0 z"
       stroke="#0000ff"
       stroke-width="0.2"
       id="path9"
       style="stroke-width:0.0158419;stroke-dasharray:none" />
    <path
       d="m 36.4,319.1 h -2.9 c -0.1,0 0,0.1 0,0 v -2.8 c 0,-0.1 -0.1,0 0,0 h 5.8 c 0.1,0 0,-0.1 0,0 v 2.8 c 0,0.1 0.1,0 0,0 z"
       stroke="#0000ff"
       stroke-width="0.2"
       id="path10"
       style="stroke-width:0.0158419;stroke-dasharray:none" />
    <path
       d="m 48.4,319.1 h -2.9 c -0.1,0 0,0.1 0,0 v -2.8 c 0,-0.1 -0.1,0 0,0 h 5.8 c 0.1,0 0,-0.1 0,0 v 2.8 c 0,0.1 0.1,0 0,0 z"
       stroke="#0000ff"
       stroke-width="0.2"
       id="path11"
       style="stroke-width:0.0158419;stroke-dasharray:none" />
    <path
       d="m 60.4,319.1 h -2.9 c -0.1,0 0,0.1 0,0 v -2.8 c 0,-0.1 -0.1,0 0,0 h 5.8 c 0.1,0 0,-0.1 0,0 v 2.8 c 0,0.1 0.1,0 0,0 z"
       stroke="#0000ff"
       stroke-width="0.2"
       id="path12"
       style="stroke-width:0.0158419;stroke-dasharray:none" />
    <path
       d="m 72.4,319.1 h -2.9 c -0.1,0 0,0.1 0,0 v -2.8 c 0,-0.1 -0.1,0 0,0 h 5.8 c 0.1,0 0,-0.1 0,0 v 2.8 c 0,0.1 0.1,0 0,0 z"
       stroke="#0000ff"
       stroke-width="0.2"
       id="path13"
       style="stroke-width:0.0158419;stroke-dasharray:none" />
    <path
       d="m 13.4,322.3 h 70 3 c 0.055,0 0.1,-0.045 0.1,-0.1 v -6.5 c 0,-0.055 -0.045,-0.1 -0.1,-0.1 h -2.9 c -0.1,0 0,0.1 0,0 v -5.8 c 0,-0.1 -0.1,0 0,0 h 2.9 c 0.055,0 0.1,-0.045 0.1,-0.1 v -6 c 0,-0.055 -0.045,-0.1 -0.1,-0.1 h -2.9 c -0.1,0 0,0.1 0,0 v -5.8 c 0,-0.1 -0.1,0 0,0 h 2.9 c 0.055,0 0.1,-0.045 0.1,-0.1 v -6 c 0,-0.055 -0.045,-0.1 -0.1,-0.1 h -2.9 c -0.1,0 0,0.1 0,0 v -5.8 c 0,-0.1 -0.1,0 0,0 h 2.9 c 0.055,0 0.1,-0.045 0.1,-0.1 v -6 c 0,-0.055 -0.045,-0.1 -0.1,-0.1 h -2.9 c -0.1,0 0,0.1 0,0 v -5.8 c 0,-0.1 -0.1,0 0,0 h 2.9 c 0.055,0 0.1,-0.045 0.1,-0.1 v -6 c 0,-0.055 -0.045,-0.1 -0.1,-0.1 h -2.9 c -0.1,0 0,0.1 0,0 v -5.8 c 0,-0.1 -0.1,0 0,0 h 2.9 c 0.055,0 0.1,-0.045 0.1,-0.1 v -6.5 c 0,-0.055 -0.045,-0.1 -0.1,-0.1 h -3 -60.304 c -0.246,0 -0.487,-0.065 -0.7,-0.188 -0.213,-0.122 -0.389,-0.299 -0.512,-0.512 -0.123,-0.213 -0.188,-0.454 -0.188,-0.7 0,-1 -0.263,-1.983 -0.763,-2.849 -0.5,-0.866 -1.22,-1.586 -2.086,-2.086 -0.866,-0.5 -1.849,-0.763 -2.849,-0.763 -1,0 -1.983,0.263 -2.849,0.763 -0.866,0.5 -1.585,1.22 -2.086,2.086 -0.5,0.866 -0.763,1.849 -0.763,2.849 v 1.5 l 0,0.0908 V 261.7 c 0,0.055 0.045,0.1 0.1,0.1 h 2.9 c 0.1,0 0,-0.1 0,0 v 5.8 c 0,0.1 0.1,0 0,0 h -2.9 c -0.055,0 -0.1,0.045 -0.1,0.1 v 6 c 0,0.055 0.045,0.1 0.1,0.1 h 2.9 c 0.1,0 0,-0.1 0,0 v 5.8 c 0,0.1 0.1,0 0,0 h -2.9 c -0.055,0 -0.1,0.045 -0.1,0.1 v 6 c 0,0.055 0.045,0.1 0.1,0.1 h 2.9 c 0.1,0 0,-0.1 0,0 v 5.8 c 0,0.1 0.1,0 0,0 h -2.9 c -0.055,0 -0.1,0.045 -0.1,0.1 v 6 c 0,0.055 0.045,0.1 0.1,0.1 h 2.9 c 0.1,0 0,-0.1 0,0 v 5.8 c 0,0.1 0.1,0 0,0 h -2.9 c -0.055,0 -0.1,0.045 -0.1,0.1 v 6 c 0,0.055 0.045,0.1 0.1,0.1 h 2.9 c 0.1,0 0,-0.1 0,0 v 5.8 c 0,0.1 0.1,0 0,0 h -2.9 c -0.055,0 -0.1,0.045 -0.1,0.1 v 6.5 c 0,0.055 0.045,0.1 0.1,0.1 h 3"
       stroke="#000000"
       stroke-width="0.2"
       id="path14"
       style="stroke-width:0.0158419;stroke-dasharray:none"
       sodipodi:nodetypes="ccsssssssssssssssssssssssssssssssssssssssssssscscsssssscsccssssssssssssssssssssssssssssssssssssssssssc" />
    <path
       d="m 15.998,252.2 h 1.199 c 0.1,0 0,-0.1 0,0 v 2.8 c 0,0.1 0.1,0 0,0 h -2.398 c -0.1,0 0,0.1 0,0 v -2.8 c 0,-0.1 -0.1,0 0,0 z"
       stroke="#0000ff"
       stroke-width="0.2"
       id="path15"
       style="stroke-width:0.0158419;stroke-dasharray:none" />
    <ellipse
       style="fill:none;stroke:#3d2af6;stroke-width:0.0132006;stroke-dasharray:none;stroke-opacity:1"
       id="path33"
       cx="15.99049"
       cy="253.66237"
       rx="2.4375486"
       ry="2.3874972" />
    <ellipse
       style="fill:none;stroke:#3d2af6;stroke-width:0.0132006;stroke-linecap:round;stroke-linejoin:round;stroke-dasharray:none;stroke-opacity:1"
       id="path33-9"
       cx="159.62619"
       cy="254.24988"
       rx="2.4375486"
       ry="2.3874972" />
  </g>
  <g
     id="p-3"
     style="fill:none;stroke-linecap:round;stroke-linejoin:round;stroke-width:0.01252083;stroke-dasharray:none"
     transform="matrix(2.6186783,0,0,1.5715166,184.00933,-255.42476)">
    <path
       d="m 13.399976,241.56098 h 7.900005 c 0.1,0 0,-0.0999 0,0 v 2.89846 c 0,0.055 0.045,0.1 0.1,0.1 h 6.000004 c 0.055,0 0.1,-0.045 0.1,-0.1 v -2.89846 c 0,-0.0999 -0.1,0 0,0 h 5.800004 c 0.100001,0 0,-0.0999 0,0 v 2.89846 c 0,0.055 0.045,0.1 0.100001,0.1 h 6.000004 c 0.055,0 0.1,-0.045 0.1,-0.1 v -2.89846 c 0,-0.0999 -0.1,0 0,0 h 5.800004 c 0.1,0 0,-0.0999 0,0 v 2.89846 c 0,0.055 0.045,0.1 0.1,0.1 h 6.000004 c 0.055,0 0.1,-0.045 0.1,-0.1 v -2.89846 c 0,-0.0999 -0.1,0 0,0 h 5.800004 c 0.1,0 0,-0.0999 0,0 v 2.89846 c 0,0.055 0.045,0.1 0.1,0.1 h 6.000004 c 0.055,0 0.100001,-0.045 0.100001,-0.1 v -2.89846 c 0,-0.0999 -0.100001,0 0,0 h 5.800004 c 0.1,0 0,-0.0999 0,0 v 2.89846 c 0,0.055 0.045,0.1 0.1,0.1 h 6.000004 c 0.055,0 0.1,-0.045 0.1,-0.1 v -2.89846 c 0,-0.0999 -0.1,0 0,0 h 7.900005 c 0.055,0 0.100001,-0.045 0.100001,-0.0999 v -7.8958 c 0,-0.0999 -0.100001,0 0,0 h 2.900002 c 0.055,0 0.1,-0.045 0.1,-0.0999 v -5.99681 c 0,-0.055 -0.045,-0.0999 -0.1,-0.0999 h -2.900002 c -0.100001,0 0,0.0999 0,0 v -5.79691 c 0,-0.1 -0.100001,0 0,0 h 2.900002 c 0.055,0 0.1,-0.045 0.1,-0.1 v -5.9968 c 0,-0.055 -0.045,-0.0999 -0.1,-0.0999 h -2.900002 c -0.100001,0 0,0.0999 0,0 v -5.79691 c 0,-0.1 -0.100001,0 0,0 h 2.900002 c 0.055,0 0.1,-0.045 0.1,-0.1 v -5.9968 c 0,-0.055 -0.045,-0.1 -0.1,-0.1 h -2.900002 c -0.100001,0 0,0.1 0,0 v -5.79691 c 0,-0.1 -0.100001,0 0,0 h 2.900002 c 0.055,0 0.1,-0.045 0.1,-0.1 v -5.9968 c 0,-0.055 -0.045,-0.1 -0.1,-0.1 h -2.900002 c -0.100001,0 0,0.1 0,0 v -5.79691 c 0,-0.0999 -0.100001,0 0,0 h 2.900002 c 0.055,0 0.1,-0.045 0.1,-0.0999 v -5.99681 c 0,-0.055 -0.045,-0.0999 -0.1,-0.0999 h -2.900002 c -0.100001,0 0,0.0999 0,0 v -7.89579 c 0,-0.055 -0.045,-0.0999 -0.100001,-0.0999 h -7.900005 c -0.1,0 0,0.0999 0,0 v -2.89846 c 0,-0.055 -0.045,-0.1 -0.1,-0.1 h -6.000004 c -0.055,0 -0.1,0.045 -0.1,0.1 v 2.89846 c 0,0.0999 0.1,0 0,0 h -5.800004 c -0.100001,0 0,0.0999 0,0 v -2.89846 c 0,-0.055 -0.045,-0.1 -0.100001,-0.1 h -6.000004 c -0.055,0 -0.1,0.045 -0.1,0.1 v 2.89846 c 0,0.0999 0.1,0 0,0 h -5.800004 c -0.1,0 0,0.0999 0,0 v -2.89846 c 0,-0.055 -0.045,-0.1 -0.1,-0.1 h -6.000004 c -0.055,0 -0.1,0.045 -0.1,0.1 v 2.89846 c 0,0.0999 0.1,0 0,0 h -5.800004 c -0.1,0 0,0.0999 0,0 v -2.89846 c 0,-0.055 -0.045,-0.1 -0.1,-0.1 H 33.39999 c -0.055,0 -0.100001,0.045 -0.100001,0.1 v 2.89846 c 0,0.0999 0.100001,0 0,0 h -5.800004 c -0.1,0 0,0.0999 0,0 v -2.89846 c 0,-0.055 -0.045,-0.1 -0.1,-0.1 h -6.000004 c -0.055,0 -0.1,0.045 -0.1,0.1 v 2.89846 c 0,0.0999 0.1,0 0,0 h -7.900005 c -0.055,0 -0.100001,0.045 -0.100001,0.0999 v 7.89579 c 0,0.0999 0.100001,0 0,0 h -2.900002 c -0.055,0 -0.1,0.045 -0.1,0.0999 v 5.99681 c 0,0.055 0.045,0.0999 0.1,0.0999 h 2.900002 c 0.100001,0 0,-0.0999 0,0 v 5.79691 c 0,0.1 0.100001,0 0,0 h -2.900002 c -0.055,0 -0.1,0.045 -0.1,0.1 v 5.9968 c 1.573535,0.29321 3.120547,0.1 0.1,0.1 h 2.900002 c 0.100001,0 0,-0.1 0,0 v 5.79691 c 0,0.1 0.100001,0 0,0 h -2.900002 c -0.055,0 -0.1,0.045 -0.1,0.1 v 5.9968 c 0,0.055 0.045,0.1 0.1,0.1 h 2.900002 c 0.100001,0 0,-0.1 0,0 v 5.79691 c 0,0.0999 0.100001,0 0,0 h -2.900002 c -0.055,0 -0.1,0.045 -0.1,0.0999 v 5.9968 c 0,0.055 0.045,0.1 0.1,0.1 h 2.900002 c 0.100001,0 0,-0.1 0,0 v 5.79691 c 0,0.0999 0.100001,0 0,0 h -2.900002 c -0.055,0 -0.1,0.045 -0.1,0.0999 v 5.99681 c 0,0.055 0.045,0.0999 0.1,0.0999 h 2.900002 c 0.100001,0 0,-0.0999 0,0 v 7.8958 c 0,0.055 0.045,0.0999 0.100001,0.0999"
       stroke="#000000"
       stroke-width="0.199947"
       id="path16"
       sodipodi:nodetypes="csssssssssssssssssssssssssssssssssssssssssssssssssssssssssssssssssssssssssssssssssssssssssssssssssssssssssssssssssssssssssssssssssssssssssscssssssssssssssssssssssssssssc"
       style="stroke-width:0.01252083;stroke-dasharray:none" />
  </g>
  <g
     id="p-4"
     style="fill:none;stroke-linecap:round;stroke-linejoin:round;stroke-width:0.01227843;stroke-dasharray:none"
     transform="matrix(1.6330888,0,0,2.6204283,14.353665,-122.31229)">
    <path
       d="m 10.4,163.9 h 1.199 c 0.1,0 0,-0.1 0,0 v 2.9 c 0,0.055 0.045,0.1 0.1,0.1 h 2.598 c 0.055,0 0.1,-0.045 0.1,-0.1 v -2.9 c 0,-0.1 -0.1,0 0,0 h 5.599 c 0.1,0 0,-0.1 0,0 v 2.9 c 0,0.055 0.045,0.1 0.1,0.1 h 60.304 3 c 0.055,0 0.1,-0.045 0.1,-0.1 v -3 -70 -3 c 0,-0.055 -0.045,-0.1 -0.1,-0.1 h -3 -60.304 c -0.055,0 -0.1,0.045 -0.1,0.1 v 2.9 c 0,0.1 0.1,0 0,0 h -5.599 c -0.1,0 0,0.1 0,0 v -2.9 c 0,-0.055 -0.045,-0.1 -0.1,-0.1 h -2.598 c -0.055,0 -0.1,0.045 -0.1,0.1 v 2.9 c 0,0.1 0.1,0 0,0 H 10.4 c -0.055,0 -0.1,0.045 -0.1,0.1 v 70 c 0,0.055 0.045,0.1 0.1,0.1"
       stroke="#000000"
       stroke-width="0.2"
       id="path17"
       style="stroke-width:0.01227843;stroke-dasharray:none" />
  </g>
  <g
     id="p-7"
     style="fill:none;stroke-linecap:round;stroke-linejoin:round"
     transform="matrix(2.6189198,0,0,1.4844735,-18.64017,-356.2376)">
    <path
       d="m 102.1,396.8 h -2.9 c -0.1,0 0,0.1 0,0 V 394 c 0,-0.1 -0.1,0 0,0 h 5.8 c 0.1,0 0,-0.1 0,0 v 2.8 c 0,0.1 0.1,0 0,0 z"
       stroke="#0000ff"
       stroke-width="0.2"
       id="path20"
       style="stroke-width:0.01288209;stroke-dasharray:none" />
    <path
       d="m 114.1,396.8 h -2.9 c -0.1,0 0,0.1 0,0 V 394 c 0,-0.1 -0.1,0 0,0 h 5.8 c 0.1,0 0,-0.1 0,0 v 2.8 c 0,0.1 0.1,0 0,0 z"
       stroke="#0000ff"
       stroke-width="0.2"
       id="path21"
       style="stroke-width:0.01288209;stroke-dasharray:none" />
    <path
       d="m 126.1,396.8 h -2.9 c -0.1,0 0,0.1 0,0 V 394 c 0,-0.1 -0.1,0 0,0 h 5.8 c 0.1,0 0,-0.1 0,0 v 2.8 c 0,0.1 0.1,0 0,0 z"
       stroke="#0000ff"
       stroke-width="0.2"
       id="path22"
       style="stroke-width:0.01288209;stroke-dasharray:none" />
    <path
       d="m 138.1,396.8 h -2.9 c -0.1,0 0,0.1 0,0 V 394 c 0,-0.1 -0.1,0 0,0 h 5.8 c 0.1,0 0,-0.1 0,0 v 2.8 c 0,0.1 0.1,0 0,0 z"
       stroke="#0000ff"
       stroke-width="0.2"
       id="path23"
       style="stroke-width:0.01288209;stroke-dasharray:none" />
    <path
       d="m 150.1,396.8 h -2.9 c -0.1,0 0,0.1 0,0 V 394 c 0,-0.1 -0.1,0 0,0 h 5.8 c 0.1,0 0,-0.1 0,0 v 2.8 c 0,0.1 0.1,0 0,0 z"
       stroke="#0000ff"
       stroke-width="0.2"
       id="path24"
       style="stroke-width:0.01288209;stroke-dasharray:none" />
    <path
       d="m 91.1,400 h 70 c 0.055,0 0.1,-0.045 0.1,-0.1 v -6.4 c 0,-0.1 -0.1,0 0,0 h 2.9 c 0.055,0 0.1,-0.045 0.1,-0.1 v -6 c 0,-0.055 -0.045,-0.1 -0.1,-0.1 h -2.9 c -0.1,0 0,0.1 0,0 v -5.8 c 0,-0.1 -0.1,0 0,0 h 2.9 c 0.055,0 0.1,-0.045 0.1,-0.1 v -6 c 0,-0.055 -0.045,-0.1 -0.1,-0.1 h -2.9 c -0.1,0 0,0.1 0,0 v -5.8 c 0,-0.1 -0.1,0 0,0 h 2.9 c 0.055,0 0.1,-0.045 0.1,-0.1 v -6 c 0,-0.055 -0.045,-0.1 -0.1,-0.1 h -2.9 c -0.1,0 0,0.1 0,0 v -5.8 c 0,-0.1 -0.1,0 0,0 h 2.9 c 0.055,0 0.1,-0.045 0.1,-0.1 v -6 c 0,-0.055 -0.045,-0.1 -0.1,-0.1 h -2.9 c -0.1,0 0,0.1 0,0 v -5.8 c 0,-0.1 -0.1,0 0,0 h 2.9 c 0.055,0 0.1,-0.045 0.1,-0.1 v -6 c 0,-0.055 -0.045,-0.1 -0.1,-0.1 h -2.9 c -0.1,0 0,0.1 0,0 v -6.4 c 0,-0.055 -0.045,-0.1 -0.1,-0.1 h -70 c -0.055,0 -0.1,0.045 -0.1,0.1 v 6.4 c 0,0.1 0.1,0 0,0 h -2.9 c -0.055,0 -0.1,0.045 -0.1,0.1 v 6 c 0,0.055 0.045,0.1 0.1,0.1 H 91 c 0.1,0 0,-0.1 0,0 v 5.8 c 0,0.1 0.1,0 0,0 h -2.9 c -0.055,0 -0.1,0.045 -0.1,0.1 v 6 c 0,0.055 0.045,0.1 0.1,0.1 H 91 c 0.1,0 0,-0.1 0,0 v 5.8 c 0,0.1 0.1,0 0,0 h -2.9 c -0.055,0 -0.1,0.045 -0.1,0.1 v 6 c 0,0.055 0.045,0.1 0.1,0.1 H 91 c 0.1,0 0,-0.1 0,0 v 5.8 c 0,0.1 0.1,0 0,0 h -2.9 c -0.055,0 -0.1,0.045 -0.1,0.1 v 6 c 0,0.055 0.045,0.1 0.1,0.1 H 91 c 0.1,0 0,-0.1 0,0 v 5.8 c 0,0.1 0.1,0 0,0 h -2.9 c -0.055,0 -0.1,0.045 -0.1,0.1 v 6 c 0,0.055 0.045,0.1 0.1,0.1 H 91 c 0.1,0 0,-0.1 0,0 v 6.4 c 0,0.055 0.045,0.1 0.1,0.1"
       stroke="#000000"
       stroke-width="0.2"
       id="path25"
       style="stroke-width:0.01288209;stroke-dasharray:none" />
  </g>
  <g
     id="p-8"
     style="fill:none;stroke-linecap:round;stroke-linejoin:round;stroke-width:0.01288209;stroke-dasharray:none"
     transform="matrix(2.6189198,0,0,1.4844735,-442.96426,-262.20112)">
    <path
       d="m 186.00998,246.4376 h -2.9 c -0.1,0 0,0.1 0,0 v -2.8 c 0,-0.1 -0.1,0 0,0 h 5.8 c 0.1,0 0,-0.1 0,0 v 2.8 c 0,0.1 0.1,0 0,0 z"
       stroke="#0000ff"
       stroke-width="0.2"
       id="path26"
       style="stroke-width:0.01288209;stroke-dasharray:none" />
    <path
       d="m 198.00998,246.4376 h -2.9 c -0.1,0 0,0.1 0,0 v -2.8 c 0,-0.1 -0.1,0 0,0 h 5.8 c 0.1,0 0,-0.1 0,0 v 2.8 c 0,0.1 0.1,0 0,0 z"
       stroke="#0000ff"
       stroke-width="0.2"
       id="path27"
       style="stroke-width:0.01288209;stroke-dasharray:none" />
    <path
       d="m 210.00998,246.4376 h -2.9 c -0.1,0 0,0.1 0,0 v -2.8 c 0,-0.1 -0.1,0 0,0 h 5.8 c 0.1,0 0,-0.1 0,0 v 2.8 c 0,0.1 0.1,0 0,0 z"
       stroke="#0000ff"
       stroke-width="0.2"
       id="path28"
       style="stroke-width:0.01288209;stroke-dasharray:none" />
    <path
       d="m 222.00998,246.4376 h -2.9 c -0.1,0 0,0.1 0,0 v -2.8 c 0,-0.1 -0.1,0 0,0 h 5.8 c 0.1,0 0,-0.1 0,0 v 2.8 c 0,0.1 0.1,0 0,0 z"
       stroke="#0000ff"
       stroke-width="0.2"
       id="path29"
       style="stroke-width:0.01288209;stroke-dasharray:none" />
    <path
       d="m 234.00998,246.4376 h -2.9 c -0.1,0 0,0.1 0,0 v -2.8 c 0,-0.1 -0.1,0 0,0 h 5.8 c 0.1,0 0,-0.1 0,0 v 2.8 c 0,0.1 0.1,0 0,0 z"
       stroke="#0000ff"
       stroke-width="0.2"
       id="path30"
       style="stroke-width:0.01288209;stroke-dasharray:none" />
    <path
       d="m 175.00998,249.6376 h 70 c 0.055,0 0.1,-0.045 0.1,-0.1 v -6.4 c 0,-0.1 -0.1,0 0,0 h 2.9 c 0.055,0 0.1,-0.045 0.1,-0.1 v -6 c 0,-0.055 -0.045,-0.1 -0.1,-0.1 h -2.9 c -0.1,0 0,0.1 0,0 v -5.8 c 0,-0.1 -0.1,0 0,0 h 2.9 c 0.055,0 0.1,-0.045 0.1,-0.1 v -6 c 0,-0.055 -0.045,-0.1 -0.1,-0.1 h -2.9 c -0.1,0 0,0.1 0,0 v -5.8 c 0,-0.1 -0.1,0 0,0 h 2.9 c 0.055,0 0.1,-0.045 0.1,-0.1 v -6 c 0,-0.055 -0.045,-0.1 -0.1,-0.1 h -2.9 c -0.1,0 0,0.1 0,0 v -5.8 c 0,-0.1 -0.1,0 0,0 h 2.9 c 0.055,0 0.1,-0.045 0.1,-0.1 v -6 c 0,-0.055 -0.045,-0.1 -0.1,-0.1 h -2.9 c -0.1,0 0,0.1 0,0 v -5.8 c 0,-0.1 -0.1,0 0,0 h 2.9 c 0.055,0 0.1,-0.045 0.1,-0.1 v -6 c 0,-0.055 -0.045,-0.1 -0.1,-0.1 h -2.9 c -0.1,0 0,0.1 0,0 v -6.4 c 0,-0.055 -0.045,-0.1 -0.1,-0.1 h -70 c -0.055,0 -0.1,0.045 -0.1,0.1 v 6.4 c 0,0.1 0.1,0 0,0 h -2.9 c -0.055,0 -0.1,0.045 -0.1,0.1 v 6 c 0,0.055 0.045,0.1 0.1,0.1 h 2.9 c 0.1,0 0,-0.1 0,0 v 5.8 c 0,0.1 0.1,0 0,0 h -2.9 c -0.055,0 -0.1,0.045 -0.1,0.1 v 6 c 0,0.055 0.045,0.1 0.1,0.1 h 2.9 c 0.1,0 0,-0.1 0,0 v 5.8 c 0,0.1 0.1,0 0,0 h -2.9 c -0.055,0 -0.1,0.045 -0.1,0.1 v 6 c 0,0.055 0.045,0.1 0.1,0.1 h 2.9 c 0.1,0 0,-0.1 0,0 v 5.8 c 0,0.1 0.1,0 0,0 h -2.9 c -0.055,0 -0.1,0.045 -0.1,0.1 v 6 c 0,0.055 0.045,0.1 0.1,0.1 h 2.9 c 0.1,0 0,-0.1 0,0 v 5.8 c 0,0.1 0.1,0 0,0 h -2.9 c -0.055,0 -0.1,0.045 -0.1,0.1 v 6 c 0,0.055 0.045,0.1 0.1,0.1 h 2.9 c 0.1,0 0,-0.1 0,0 v 6.4 c 0,0.055 0.045,0.1 0.1,0.1"
       stroke="#000000"
       stroke-width="0.2"
       id="path31"
       style="stroke-width:0.01288209;stroke-dasharray:none" />
  </g>
  <circle
     style="fill:none;stroke:#2f34ff;stroke-width:0.0254;stroke-dasharray:none;stroke-opacity:1"
     id="path32"
     cx="165.9736"
     cy="28.314295"
     r="3.7459815" />
  <circle
     style="fill:none;stroke:#2f34ff;stroke-width:0.0254;stroke-dasharray:none;stroke-opacity:1"
     id="path32-3"
     cx="141.73714"
     cy="28.344515"
     r="3.7459815" />
  <circle
     style="fill:none;stroke:#2f34ff;stroke-width:0.0254;stroke-dasharray:none;stroke-opacity:1"
     id="path32-0"
     cx="117.37722"
     cy="28.544231"
     r="3.7459815" />
  <ellipse
     style="fill:none;stroke:#3d2af6;stroke-width:0.0254;stroke-dasharray:none;stroke-opacity:1"
     id="path32-0-8"
     cx="99.844063"
     cy="212.30829"
     rx="1.9317782"
     ry="1.9317781" />
  <ellipse
     style="fill:none;stroke:#3d2af6;stroke-width:0.0254;stroke-dasharray:none;stroke-opacity:1"
     id="path32-0-8-4"
     cx="122.97544"
     cy="211.93918"
     rx="1.9317782"
     ry="1.9317781" />
  <ellipse
     style="fill:none;stroke:#3d2af6;stroke-width:0.0254;stroke-dasharray:none;stroke-opacity:1"
     id="path32-0-8-6"
     cx="100.18046"
     cy="232.91939"
     rx="1.9317782"
     ry="1.9317781" />
  <ellipse
     style="fill:none;stroke:#3d2af6;stroke-width:0.0254;stroke-dasharray:none;stroke-opacity:1"
     id="path32-0-8-4-4"
     cx="122.56263"
     cy="232.92488"
     rx="1.9317782"
     ry="1.9317781" />
  <rect
     style="fill:none;stroke:#3d2af6;stroke-width:0.0254;stroke-dasharray:none;stroke-opacity:1"
     id="rect32"
     width="4.4951782"
     height="10.301457"
     x="99.268501"
     y="217.42209" />
  <rect
     style="fill:none;stroke:#3d2af6;stroke-width:0.0254;stroke-dasharray:none;stroke-opacity:1"
     id="rect33"
     width="12.819193"
     height="22.819193"
     x="66.708099"
     y="237.29138" />
  <rect
     style="fill:none;stroke:#3d2af6;stroke-width:0.0254;stroke-dasharray:none;stroke-opacity:1"
     id="rect33-3"
     width="12.819193"
     height="22.819193"
     x="288.32202"
     y="-111.33756"
     transform="rotate(90.260041)" />
  <rect
     style="fill:none;stroke:#3d2af6;stroke-width:0.0254;stroke-dasharray:none;stroke-opacity:1"
     id="rect33-0"
     width="12.819193"
     height="22.819193"
     x="66.779091"
     y="197.41362" />
  <rect
     style="fill:none;stroke:#3d2af6;stroke-width:0.0254;stroke-dasharray:none;stroke-opacity:1"
     id="rect33-9"
     width="12.819193"
     height="22.819193"
     x="67.300522"
     y="159.58891" />
</svg>
