<?xml version="1.0" encoding="UTF-8" standalone="no"?>
<svg
   height="406.90mm"
   viewBox="0.0 0.0 486.90 406.90"
   width="486.90mm"
   version="1.1"
   id="svg71"
   sodipodi:docname="BasedBox.svg"
   inkscape:version="1.4 (e7c3feb1, 2024-10-09)"
   xmlns:inkscape="http://www.inkscape.org/namespaces/inkscape"
   xmlns:sodipodi="http://sodipodi.sourceforge.net/DTD/sodipodi-0.dtd"
   xmlns="http://www.w3.org/2000/svg"
   xmlns:svg="http://www.w3.org/2000/svg"
   xmlns:rdf="http://www.w3.org/1999/02/22-rdf-syntax-ns#"
   xmlns:cc="http://creativecommons.org/ns#"
   xmlns:dc="http://purl.org/dc/elements/1.1/">
  <defs
     id="defs71" />
  <sodipodi:namedview
     id="namedview71"
     pagecolor="#ffffff"
     bordercolor="#000000"
     borderopacity="0.25"
     inkscape:showpageshadow="2"
     inkscape:pageopacity="0.0"
     inkscape:pagecheckerboard="0"
     inkscape:deskcolor="#d1d1d1"
     inkscape:document-units="mm"
     showguides="true"
     inkscape:zoom="0.79117184"
     inkscape:cx="573.20038"
     inkscape:cy="341.89791"
     inkscape:window-width="1512"
     inkscape:window-height="858"
     inkscape:window-x="0"
     inkscape:window-y="38"
     inkscape:window-maximized="1"
     inkscape:current-layer="p-5" />
  <!--
BasedBox - Fully closed box on a base


This box is more of a building block than a finished item.
Use a vector graphics program (like Inkscape) to add holes or adjust the base
plate. The width of the "brim" can also be adjusted with the **edge_width**
 parameter in the **Finger Joints Settings**.

See ClosedBox for variant without a base.



Created with Boxes.py (https://boxes.hackerspace-bamberg.de/)
Creation date: 2024-11-30 23:24:01
Command line (remove spaces between dashes): boxes BasedBox - -x=230 - -y=127 - -h=120 - -thickness=2.6
Url: https://boxes.hackerspace-bamberg.de/BasedBox?FingerJoint_style=rectangular&FingerJoint_surroundingspaces=2.0&FingerJoint_bottom_lip=0.0&FingerJoint_edge_width=1.0&FingerJoint_extra_length=0.0&FingerJoint_finger=2.0&FingerJoint_play=0.0&FingerJoint_space=2.0&FingerJoint_width=1.0&x=230&y=127&h=120&outside=0&outside=1&thickness=2.6&format=svg&tabs=0.0&qr_code=0&debug=0&labels=0&labels=1&reference=100.0&inner_corners=loop&burn=0.1&language=en&render=1
Url short: https://boxes.hackerspace-bamberg.de/BasedBox?x=230&y=127&h=120&thickness=2.6
SettingsUrl: https://boxes.hackerspace-bamberg.de/BasedBox?FingerJoint_style=rectangular&FingerJoint_surroundingspaces=2.0&FingerJoint_bottom_lip=0.0&FingerJoint_edge_width=1.0&FingerJoint_extra_length=0.0&FingerJoint_finger=2.0&FingerJoint_play=0.0&FingerJoint_space=2.0&FingerJoint_width=1.0&x=230&y=127&h=120&outside=0&outside=1&thickness=2.6&format=svg&tabs=0.0&qr_code=0&debug=0&labels=0&labels=1&reference=100.0&inner_corners=loop&burn=0.1&language=en
SettingsUrl short: https://boxes.hackerspace-bamberg.de/BasedBox?x=230&y=127&h=120&thickness=2.6
-->
  <title
     id="title1">BasedBox</title>
  <metadata
     id="metadata1">
    <rdf:RDF>
      <cc:Work>
        <dc:title>Box - BasedBox</dc:title>
        <dc:date>2024-11-30 23:24:01</dc:date>
        <dc:source>https://boxes.hackerspace-bamberg.de/BasedBox?FingerJoint_style=rectangular&amp;FingerJoint_surroundingspaces=2.0&amp;FingerJoint_bottom_lip=0.0&amp;FingerJoint_edge_width=1.0&amp;FingerJoint_extra_length=0.0&amp;FingerJoint_finger=2.0&amp;FingerJoint_play=0.0&amp;FingerJoint_space=2.0&amp;FingerJoint_width=1.0&amp;x=230&amp;y=127&amp;h=120&amp;outside=0&amp;outside=1&amp;thickness=2.6&amp;format=svg&amp;tabs=0.0&amp;qr_code=0&amp;debug=0&amp;labels=0&amp;labels=1&amp;reference=100.0&amp;inner_corners=loop&amp;burn=0.1&amp;language=en&amp;render=1</dc:source>
        <dc:source>https://boxes.hackerspace-bamberg.de/BasedBox?x=230&amp;y=127&amp;h=120&amp;thickness=2.6</dc:source>
        <dc:description>Fully closed box on a base

This box is more of a building block than a finished item.
Use a vector graphics program (like Inkscape) to add holes or adjust the base
plate. The width of the &quot;brim&quot; can also be adjusted with the **edge_width**
 parameter in the **Finger Joints Settings**.

See ClosedBox for variant without a base.


Created with Boxes.py (https://boxes.hackerspace-bamberg.de/)
Command line: boxes BasedBox --FingerJoint_style=rectangular --FingerJoint_surroundingspaces=2.0 --FingerJoint_bottom_lip=0.0 --FingerJoint_edge_width=1.0 --FingerJoint_extra_length=0.0 --FingerJoint_finger=2.0 --FingerJoint_play=0.0 --FingerJoint_space=2.0 --FingerJoint_width=1.0 --x=230 --y=127 --h=120 --outside=0 --outside=1 --thickness=2.6 --format=svg --tabs=0.0 --qr_code=0 --debug=0 --labels=0 --labels=1 --reference=100.0 --inner_corners=loop --burn=0.1
Command line short: boxes BasedBox --x=230 --y=127 --h=120 --thickness=2.6
Url: https://boxes.hackerspace-bamberg.de/BasedBox?FingerJoint_style=rectangular&amp;FingerJoint_surroundingspaces=2.0&amp;FingerJoint_bottom_lip=0.0&amp;FingerJoint_edge_width=1.0&amp;FingerJoint_extra_length=0.0&amp;FingerJoint_finger=2.0&amp;FingerJoint_play=0.0&amp;FingerJoint_space=2.0&amp;FingerJoint_width=1.0&amp;x=230&amp;y=127&amp;h=120&amp;outside=0&amp;outside=1&amp;thickness=2.6&amp;format=svg&amp;tabs=0.0&amp;qr_code=0&amp;debug=0&amp;labels=0&amp;labels=1&amp;reference=100.0&amp;inner_corners=loop&amp;burn=0.1&amp;language=en&amp;render=1
Url short: https://boxes.hackerspace-bamberg.de/BasedBox?x=230&amp;y=127&amp;h=120&amp;thickness=2.6
SettingsUrl: https://boxes.hackerspace-bamberg.de/BasedBox?FingerJoint_style=rectangular&amp;FingerJoint_surroundingspaces=2.0&amp;FingerJoint_bottom_lip=0.0&amp;FingerJoint_edge_width=1.0&amp;FingerJoint_extra_length=0.0&amp;FingerJoint_finger=2.0&amp;FingerJoint_play=0.0&amp;FingerJoint_space=2.0&amp;FingerJoint_width=1.0&amp;x=230&amp;y=127&amp;h=120&amp;outside=0&amp;outside=1&amp;thickness=2.6&amp;format=svg&amp;tabs=0.0&amp;qr_code=0&amp;debug=0&amp;labels=0&amp;labels=1&amp;reference=100.0&amp;inner_corners=loop&amp;burn=0.1&amp;language=en
SettingsUrl short: https://boxes.hackerspace-bamberg.de/BasedBox?x=230&amp;y=127&amp;h=120&amp;thickness=2.6
</dc:description>
      </cc:Work>
    </rdf:RDF>
  </metadata>
  <g
     id="p-1"
     style="fill:none;stroke-linecap:round;stroke-linejoin:round;">
    <text
       dominant-baseline="hanging"
       font-size="4px"
       style="font-family: sans-serif ; font-weight: normal; font-style: normal; fill: rgb(255,0,0)"
       text-anchor="middle"
       transform="matrix( 1.000 0.000 0.000 1.000 125.100 323.400 )"
       id="text2">Wall 1</text>
    <path
       d="m 12.7,382.8 h -2.6 c -0.055,0 -0.1,-0.045 -0.1,-0.1 v -8 c 0,-0.055 0.045,-0.1 0.1,-0.1 h 2.5 c 0.1,0 0,0.1 0,0 v -5 c 0,-0.1 0.1,0 0,0 h -2.5 c -0.055,0 -0.1,-0.045 -0.1,-0.1 v -5.2 c 0,-0.055 0.045,-0.1 0.1,-0.1 h 2.5 c 0.1,0 0,0.1 0,0 v -5 c 0,-0.1 0.1,0 0,0 h -2.5 c -0.055,0 -0.1,-0.045 -0.1,-0.1 v -5.2 c 0,-0.055 0.045,-0.1 0.1,-0.1 h 2.5 c 0.1,0 0,0.1 0,0 v -5 c 0,-0.1 0.1,0 0,0 h -2.5 c -0.055,0 -0.1,-0.045 -0.1,-0.1 v -5.2 c 0,-0.055 0.045,-0.1 0.1,-0.1 h 2.5 c 0.1,0 0,0.1 0,0 v -5 c 0,-0.1 0.1,0 0,0 h -2.5 c -0.055,0 -0.1,-0.045 -0.1,-0.1 v -5.2 c 0,-0.055 0.045,-0.1 0.1,-0.1 h 2.5 c 0.1,0 0,0.1 0,0 v -5 c 0,-0.1 0.1,0 0,0 h -2.5 c -0.055,0 -0.1,-0.045 -0.1,-0.1 v -5.2 c 0,-0.055 0.045,-0.1 0.1,-0.1 h 2.5 c 0.1,0 0,0.1 0,0 v -5 c 0,-0.1 0.1,0 0,0 h -2.5 c -0.055,0 -0.1,-0.045 -0.1,-0.1 v -5.2 c 0,-0.055 0.045,-0.1 0.1,-0.1 h 2.5 c 0.1,0 0,0.1 0,0 v -5 c 0,-0.1 0.1,0 0,0 h -2.5 c -0.055,0 -0.1,-0.045 -0.1,-0.1 v -5.2 c 0,-0.055 0.045,-0.1 0.1,-0.1 h 2.5 c 0.1,0 0,0.1 0,0 v -5 c 0,-0.1 0.1,0 0,0 h -2.5 c -0.055,0 -0.1,-0.045 -0.1,-0.1 v -5.2 c 0,-0.055 0.045,-0.1 0.1,-0.1 h 2.5 c 0.1,0 0,0.1 0,0 v -5 c 0,-0.1 0.1,0 0,0 h -2.5 c -0.055,0 -0.1,-0.045 -0.1,-0.1 v -5.2 c 0,-0.055 0.045,-0.1 0.1,-0.1 h 2.5 c 0.1,0 0,0.1 0,0 v -5 c 0,-0.1 0.1,0 0,0 H 10.1 C 10.045,276 10,275.955 10,275.9 L 9.9936518,267.75373 240.21018,267.73936 240.2,275.9 c -7e-5,0.055 -0.045,0.1 -0.1,0.1 h -2.5 c -0.1,0 0,-0.1 0,0 v 5 c 0,0.1 -0.1,0 0,0 h 2.5 c 0.055,0 0.1,0.045 0.1,0.1 v 5.2 c 0,0.055 -0.045,0.1 -0.1,0.1 h -2.5 c -0.1,0 0,-0.1 0,0 v 5 c 0,0.1 -0.1,0 0,0 h 2.5 c 0.055,0 0.1,0.045 0.1,0.1 v 5.2 c 0,0.055 -0.045,0.1 -0.1,0.1 h -2.5 c -0.1,0 0,-0.1 0,0 v 5 c 0,0.1 -0.1,0 0,0 h 2.5 c 0.055,0 0.1,0.045 0.1,0.1 v 5.2 c 0,0.055 -0.045,0.1 -0.1,0.1 h -2.5 c -0.1,0 0,-0.1 0,0 v 5 c 0,0.1 -0.1,0 0,0 h 2.5 c 0.055,0 0.1,0.045 0.1,0.1 v 5.2 c 0,0.055 -0.045,0.1 -0.1,0.1 h -2.5 c -0.1,0 0,-0.1 0,0 v 5 c 0,0.1 -0.1,0 0,0 h 2.5 c 0.055,0 0.1,0.045 0.1,0.1 v 5.2 c 0,0.055 -0.045,0.1 -0.1,0.1 h -2.5 c -0.1,0 0,-0.1 0,0 v 5 c 0,0.1 -0.1,0 0,0 h 2.5 c 0.055,0 0.1,0.045 0.1,0.1 v 5.2 c 0,0.055 -0.045,0.1 -0.1,0.1 h -2.5 c -0.1,0 0,-0.1 0,0 v 5 c 0,0.1 -0.1,0 0,0 h 2.5 c 0.055,0 0.1,0.045 0.1,0.1 v 5.2 c 0,0.055 -0.045,0.1 -0.1,0.1 h -2.5 c -0.1,0 0,-0.1 0,0 v 5 c 0,0.1 -0.1,0 0,0 h 2.5 c 0.055,0 0.1,0.045 0.1,0.1 v 5.2 c 0,0.055 -0.045,0.1 -0.1,0.1 h -2.5 c -0.1,0 0,-0.1 0,0 v 5 c 0,0.1 -0.1,0 0,0 h 2.5 c 0.055,0 0.1,0.045 0.1,0.1 v 5.2 c 0,0.055 -0.045,0.1 -0.1,0.1 h -2.5 c -0.1,0 0,-0.1 0,0 v 5 c 0,0.1 -0.1,0 0,0 h 2.5 c 0.055,0 0.1,0.045 0.1,0.1 v 8 c 0,0.055 -0.045,0.1 -0.1,0.1 h -2.6 -5.7 c -0.1,0 0,-0.1 0,0 v 2.5 c 0,0.055 -0.045,0.1 -0.1,0.1 h -5.2 c -0.055,0 -0.1,-0.045 -0.1,-0.1 v -2.5 c 0,-0.1 0.1,0 0,0 h -5 c -0.1,0 0,-0.1 0,0 v 2.5 c 0,0.055 -0.045,0.1 -0.1,0.1 h -5.2 c -0.055,0 -0.1,-0.045 -0.1,-0.1 v -2.5 c 0,-0.1 0.1,0 0,0 h -5 c -0.1,0 0,-0.1 0,0 v 2.5 c 0,0.055 -0.045,0.1 -0.1,0.1 h -5.2 c -0.055,0 -0.1,-0.045 -0.1,-0.1 v -2.5 c 0,-0.1 0.1,0 0,0 h -5 c -0.1,0 0,-0.1 0,0 v 2.5 c 0,0.055 -0.045,0.1 -0.1,0.1 h -5.2 c -0.055,0 -0.1,-0.045 -0.1,-0.1 v -2.5 c 0,-0.1 0.1,0 0,0 h -5 c -0.1,0 0,-0.1 0,0 v 2.5 c 0,0.055 -0.045,0.1 -0.1,0.1 h -5.2 c -0.055,0 -0.1,-0.045 -0.1,-0.1 v -2.5 c 0,-0.1 0.1,0 0,0 h -5 c -0.1,0 0,-0.1 0,0 v 2.5 c 0,0.055 -0.045,0.1 -0.1,0.1 h -5.2 c -0.055,0 -0.1,-0.045 -0.1,-0.1 v -2.5 c 0,-0.1 0.1,0 0,0 h -5 c -0.1,0 0,-0.1 0,0 v 2.5 c 0,0.055 -0.045,0.1 -0.1,0.1 h -5.2 c -0.055,0 -0.1,-0.045 -0.1,-0.1 v -2.5 c 0,-0.1 0.1,0 0,0 h -5 c -0.1,0 0,-0.1 0,0 v 2.5 c 0,0.055 -0.045,0.1 -0.1,0.1 h -5.2 c -0.055,0 -0.1,-0.045 -0.1,-0.1 v -2.5 c 0,-0.1 0.1,0 0,0 h -5 c -0.1,0 0,-0.1 0,0 v 2.5 c 0,0.055 -0.045,0.1 -0.1,0.1 h -5.2 c -0.055,0 -0.1,-0.045 -0.1,-0.1 v -2.5 c 0,-0.1 0.1,0 0,0 h -5 c -0.1,0 0,-0.1 0,0 v 2.5 c 0,0.055 -0.045,0.1 -0.1,0.1 h -5.2 c -0.055,0 -0.1,-0.045 -0.1,-0.1 v -2.5 c 0,-0.1 0.1,0 0,0 h -5 c -0.1,0 0,-0.1 0,0 v 2.5 c 0,0.055 -0.045,0.1 -0.1,0.1 h -5.2 c -0.055,0 -0.1,-0.045 -0.1,-0.1 v -2.5 c 0,-0.1 0.1,0 0,0 h -5 c -0.1,0 0,-0.1 0,0 v 2.5 c 0,0.055 -0.045,0.1 -0.1,0.1 h -5.2 c -0.055,0 -0.1,-0.045 -0.1,-0.1 v -2.5 c 0,-0.1 0.1,0 0,0 h -5 c -0.1,0 0,-0.1 0,0 v 2.5 c 0,0.055 -0.045,0.1 -0.1,0.1 h -5.2 c -0.055,0 -0.1,-0.045 -0.1,-0.1 v -2.5 c 0,-0.1 0.1,0 0,0 h -5 c -0.1,0 0,-0.1 0,0 v 2.5 c 0,0.055 -0.045,0.1 -0.1,0.1 h -5.2 c -0.055,0 -0.1,-0.045 -0.1,-0.1 v -2.5 c 0,-0.1 0.1,0 0,0 h -5 c -0.1,0 0,-0.1 0,0 v 2.5 c 0,0.055 -0.045,0.1 -0.1,0.1 h -5.2 c -0.055,0 -0.1,-0.045 -0.1,-0.1 v -2.5 c 0,-0.1 0.1,0 0,0 h -5 c -0.1,0 0,-0.1 0,0 v 2.5 c 0,0.055 -0.045,0.1 -0.1,0.1 h -5.2 c -0.055,0 -0.1,-0.045 -0.1,-0.1 v -2.5 c 0,-0.1 0.1,0 0,0 h -5 c -0.1,0 0,-0.1 0,0 v 2.5 c 0,0.055 -0.045,0.1 -0.1,0.1 h -5.2 c -0.055,0 -0.1,-0.045 -0.1,-0.1 v -2.5 c 0,-0.1 0.1,0 0,0 h -5 c -0.1,0 0,-0.1 0,0 v 2.5 c 0,0.055 -0.045,0.1 -0.1,0.1 h -5.2 c -0.055,0 -0.1,-0.045 -0.1,-0.1 v -2.5 c 0,-0.1 0.1,0 0,0 h -5 c -0.1,0 0,-0.1 0,0 v 2.5 c 0,0.055 -0.045,0.1 -0.1,0.1 h -5.2 c -0.055,0 -0.1,-0.045 -0.1,-0.1 v -2.5 c 0,-0.1 0.1,0 0,0 h -5 c -0.1,0 0,-0.1 0,0 v 2.5 c 0,0.055 -0.045,0.1 -0.1,0.1 h -5.2 c -0.055,0 -0.1,-0.045 -0.1,-0.1 v -2.5 c 0,-0.1 0.1,0 0,0 h -5 c -0.1,0 0,-0.1 0,0 v 2.5 c 0,0.055 -0.045,0.1 -0.1,0.1 h -5.2 c -0.055,0 -0.1,-0.045 -0.1,-0.1 v -2.5 c 0,-0.1 0.1,0 0,0 h -5.7"
       stroke="#000000"
       stroke-width="0.2"
       id="path2"
       sodipodi:nodetypes="cssssssssssssssssssssssssssssssssssssssssssssssssssssssssssssssssssssssssssssssssssccsssssssssssssssssssssssssssssssssssssssssssssssssssssssssssssssssssssssssssssssssscssssssssssssssssssssssssssssssssssssssssssssssssssssssssssssssssssssssssssssssssssssssssssssssssssssssssssssssssssssssssssssssssssssssssssssssssssssssssssssssssssssssssc" />
  </g>
  <g
     id="p-4"
     style="fill:none;stroke-linecap:round;stroke-linejoin:round;">
    <text
       dominant-baseline="hanging"
       font-size="4px"
       style="font-family: sans-serif ; font-weight: normal; font-style: normal; fill: rgb(255,0,0)"
       text-anchor="middle"
       transform="matrix( 1.000 0.000 0.000 1.000 125.100 201.900 )"
       id="text5">Wall 3</text>
    <path
       d="m 12.7,261.3 h 5.7 c 0.1,0 0,-0.1 0,0 v 2.5 c 0,0.055 0.045,0.1 0.1,0.1 h 5.2 c 0.055,0 0.1,-0.045 0.1,-0.1 v -2.5 c 0,-0.1 -0.1,0 0,0 h 5 c 0.1,0 0,-0.1 0,0 v 2.5 c 0,0.055 0.045,0.1 0.1,0.1 h 5.2 c 0.055,0 0.1,-0.045 0.1,-0.1 v -2.5 c 0,-0.1 -0.1,0 0,0 h 5 c 0.1,0 0,-0.1 0,0 v 2.5 c 0,0.055 0.045,0.1 0.1,0.1 h 5.2 c 0.055,0 0.1,-0.045 0.1,-0.1 v -2.5 c 0,-0.1 -0.1,0 0,0 h 5 c 0.1,0 0,-0.1 0,0 v 2.5 c 0,0.055 0.045,0.1 0.1,0.1 h 5.2 c 0.055,0 0.1,-0.045 0.1,-0.1 v -2.5 c 0,-0.1 -0.1,0 0,0 h 5 c 0.1,0 0,-0.1 0,0 v 2.5 c 0,0.055 0.045,0.1 0.1,0.1 h 5.2 c 0.055,0 0.1,-0.045 0.1,-0.1 v -2.5 c 0,-0.1 -0.1,0 0,0 h 5 c 0.1,0 0,-0.1 0,0 v 2.5 c 0,0.055 0.045,0.1 0.1,0.1 h 5.2 c 0.055,0 0.1,-0.045 0.1,-0.1 v -2.5 c 0,-0.1 -0.1,0 0,0 h 5 c 0.1,0 0,-0.1 0,0 v 2.5 c 0,0.055 0.045,0.1 0.1,0.1 h 5.2 c 0.055,0 0.1,-0.045 0.1,-0.1 v -2.5 c 0,-0.1 -0.1,0 0,0 h 5 c 0.1,0 0,-0.1 0,0 v 2.5 c 0,0.055 0.045,0.1 0.1,0.1 h 5.2 c 0.055,0 0.1,-0.045 0.1,-0.1 v -2.5 c 0,-0.1 -0.1,0 0,0 h 5 c 0.1,0 0,-0.1 0,0 v 2.5 c 0,0.055 0.045,0.1 0.1,0.1 h 5.2 c 0.055,0 0.1,-0.045 0.1,-0.1 v -2.5 c 0,-0.1 -0.1,0 0,0 h 5 c 0.1,0 0,-0.1 0,0 v 2.5 c 0,0.055 0.045,0.1 0.1,0.1 h 5.2 c 0.055,0 0.1,-0.045 0.1,-0.1 v -2.5 c 0,-0.1 -0.1,0 0,0 h 5 c 0.1,0 0,-0.1 0,0 v 2.5 c 0,0.055 0.045,0.1 0.1,0.1 h 5.2 c 0.055,0 0.1,-0.045 0.1,-0.1 v -2.5 c 0,-0.1 -0.1,0 0,0 h 5 c 0.1,0 0,-0.1 0,0 v 2.5 c 0,0.055 0.045,0.1 0.1,0.1 h 5.2 c 0.055,0 0.1,-0.045 0.1,-0.1 v -2.5 c 0,-0.1 -0.1,0 0,0 h 5 c 0.1,0 0,-0.1 0,0 v 2.5 c 0,0.055 0.045,0.1 0.1,0.1 h 5.2 c 0.055,0 0.1,-0.045 0.1,-0.1 v -2.5 c 0,-0.1 -0.1,0 0,0 h 5 c 0.1,0 0,-0.1 0,0 v 2.5 c 0,0.055 0.045,0.1 0.1,0.1 h 5.2 c 0.055,0 0.1,-0.045 0.1,-0.1 v -2.5 c 0,-0.1 -0.1,0 0,0 h 5 c 0.1,0 0,-0.1 0,0 v 2.5 c 0,0.055 0.045,0.1 0.1,0.1 h 5.2 c 0.055,0 0.1,-0.045 0.1,-0.1 v -2.5 c 0,-0.1 -0.1,0 0,0 h 5 c 0.1,0 0,-0.1 0,0 v 2.5 c 0,0.055 0.045,0.1 0.1,0.1 h 5.2 c 0.055,0 0.1,-0.045 0.1,-0.1 v -2.5 c 0,-0.1 -0.1,0 0,0 h 5 c 0.1,0 0,-0.1 0,0 v 2.5 c 0,0.055 0.045,0.1 0.1,0.1 h 5.2 c 0.055,0 0.1,-0.045 0.1,-0.1 v -2.5 c 0,-0.1 -0.1,0 0,0 h 5 c 0.1,0 0,-0.1 0,0 v 2.5 c 0,0.055 0.045,0.1 0.1,0.1 h 5.2 c 0.055,0 0.1,-0.045 0.1,-0.1 v -2.5 c 0,-0.1 -0.1,0 0,0 h 5 c 0.1,0 0,-0.1 0,0 v 2.5 c 0,0.055 0.045,0.1 0.1,0.1 h 5.2 c 0.055,0 0.1,-0.045 0.1,-0.1 v -2.5 c 0,-0.1 -0.1,0 0,0 h 5 c 0.1,0 0,-0.1 0,0 v 2.5 c 0,0.055 0.045,0.1 0.1,0.1 h 5.2 c 0.055,0 0.1,-0.045 0.1,-0.1 v -2.5 c 0,-0.1 -0.1,0 0,0 h 5 c 0.1,0 0,-0.1 0,0 v 2.5 c 0,0.055 0.045,0.1 0.1,0.1 h 5.2 c 0.055,0 0.1,-0.045 0.1,-0.1 v -2.5 c 0,-0.1 -0.1,0 0,0 h 5.7 2.6 c 0.055,0 0.1,-0.045 0.1,-0.1 v -8 c 0,-0.055 -0.045,-0.1 -0.1,-0.1 h -2.5 c -0.1,0 0,0.1 0,0 v -5 c 0,-0.1 -0.1,0 0,0 h 2.5 c 0.055,0 0.1,-0.045 0.1,-0.1 v -5.2 c 0,-0.055 -0.045,-0.1 -0.1,-0.1 h -2.5 c -0.1,0 0,0.1 0,0 v -5 c 0,-0.1 -0.1,0 0,0 h 2.5 c 0.055,0 0.1,-0.045 0.1,-0.1 v -5.2 c 0,-0.055 -0.045,-0.1 -0.1,-0.1 h -2.5 c -0.1,0 0,0.1 0,0 v -5 c 0,-0.1 -0.1,0 0,0 h 2.5 c 0.055,0 0.1,-0.045 0.1,-0.1 V 222 c 0,-0.055 -0.045,-0.1 -0.1,-0.1 h -2.5 c -0.1,0 0,0.1 0,0 v -5 c 0,-0.1 -0.1,0 0,0 h 2.5 c 0.055,0 0.1,-0.045 0.1,-0.1 v -5.2 c 0,-0.055 -0.045,-0.1 -0.1,-0.1 h -2.5 c -0.1,0 0,0.1 0,0 v -5 c 0,-0.1 -0.1,0 0,0 h 2.5 c 0.055,0 0.1,-0.045 0.1,-0.1 v -5.2 c 0,-0.055 -0.045,-0.1 -0.1,-0.1 h -2.5 c -0.1,0 0,0.1 0,0 v -5 c 0,-0.1 -0.1,0 0,0 h 2.5 c 0.055,0 0.1,-0.045 0.1,-0.1 v -5.2 c 0,-0.055 -0.045,-0.1 -0.1,-0.1 h -2.5 c -0.1,0 0,0.1 0,0 v -5 c 0,-0.1 -0.1,0 0,0 h 2.5 c 0.055,0 0.1,-0.045 0.1,-0.1 v -5.2 c 0,-0.055 -0.045,-0.1 -0.1,-0.1 h -2.5 c -0.1,0 0,0.1 0,0 v -5 c 0,-0.1 -0.1,0 0,0 h 2.5 c 0.055,0 0.1,-0.045 0.1,-0.1 V 170 c 0,-0.055 -0.045,-0.1 -0.1,-0.1 h -2.5 c -0.1,0 0,0.1 0,0 v -5 c 0,-0.1 -0.1,0 0,0 h 2.5 c 0.055,0 0.1,-0.045 0.1,-0.1 v -5.2 c 0,-0.055 -0.045,-0.1 -0.1,-0.1 h -2.5 c -0.1,0 0,0.1 0,0 v -5 c 0,-0.1 -0.1,0 0,0 h 2.5 c 0.055,0 0.1,-0.045 0.1,-0.1 l 0.029,-8.0056 L 10.022857,146.4636 10,154.4 c 3.23e-4,0.055 0.045,0.1 0.1,0.1 h 2.5 c 0.1,0 0,-0.1 0,0 v 5 c 0,0.1 0.1,0 0,0 h -2.5 c -0.055,0 -0.1,0.045 -0.1,0.1 v 5.2 c 0,0.055 0.045,0.1 0.1,0.1 h 2.5 c 0.1,0 0,-0.1 0,0 v 5 c 0,0.1 0.1,0 0,0 h -2.5 c -0.055,0 -0.1,0.045 -0.1,0.1 v 5.2 c 0,0.055 0.045,0.1 0.1,0.1 h 2.5 c 0.1,0 0,-0.1 0,0 v 5 c 0,0.1 0.1,0 0,0 h -2.5 c -0.055,0 -0.1,0.045 -0.1,0.1 v 5.2 c 0,0.055 0.045,0.1 0.1,0.1 h 2.5 c 0.1,0 0,-0.1 0,0 v 5 c 0,0.1 0.1,0 0,0 h -2.5 c -0.055,0 -0.1,0.045 -0.1,0.1 v 5.2 c 0,0.055 0.045,0.1 0.1,0.1 h 2.5 c 0.1,0 0,-0.1 0,0 v 5 c 0,0.1 0.1,0 0,0 h -2.5 c -0.055,0 -0.1,0.045 -0.1,0.1 v 5.2 c 0,0.055 0.045,0.1 0.1,0.1 h 2.5 c 0.1,0 0,-0.1 0,0 v 5 c 0,0.1 0.1,0 0,0 h -2.5 c -0.055,0 -0.1,0.045 -0.1,0.1 v 5.2 c 0,0.055 0.045,0.1 0.1,0.1 h 2.5 c 0.1,0 0,-0.1 0,0 v 5 c 0,0.1 0.1,0 0,0 h -2.5 c -0.055,0 -0.1,0.045 -0.1,0.1 v 5.2 c 0,0.055 0.045,0.1 0.1,0.1 h 2.5 c 0.1,0 0,-0.1 0,0 v 5 c 0,0.1 0.1,0 0,0 h -2.5 c -0.055,0 -0.1,0.045 -0.1,0.1 v 5.2 c 0,0.055 0.045,0.1 0.1,0.1 h 2.5 c 0.1,0 0,-0.1 0,0 v 5 c 0,0.1 0.1,0 0,0 h -2.5 c -0.055,0 -0.1,0.045 -0.1,0.1 v 5.2 c 0,0.055 0.045,0.1 0.1,0.1 h 2.5 c 0.1,0 0,-0.1 0,0 v 5 c 0,0.1 0.1,0 0,0 h -2.5 c -0.055,0 -0.1,0.045 -0.1,0.1 v 8 c 0,0.055 0.045,0.1 0.1,0.1 h 2.6"
       stroke="#000000"
       stroke-width="0.2"
       id="path5"
       sodipodi:nodetypes="csssssssssssssssssssssssssssssssssssssssssssssssssssssssssssssssssssssssssssssssssssssssssssssssssssssssssssssssssssssssssssssssssssssssssssssssssssssssssssssssssssssssscssssssssssssssssssssssssssssssssssssssssssssssssssssssssssssssssssssssssssssssssssccssssssssssssssssssssssssssssssssssssssssssssssssssssssssssssssssssssssssssssssssssc" />
  </g>
  <g
     id="p-5"
     style="fill:none;stroke-linecap:round;stroke-linejoin:round;">
    <text
       dominant-baseline="hanging"
       font-size="4px"
       style="font-style:normal;font-weight:normal;font-family:sans-serif;fill:#ff0000"
       text-anchor="middle"
       id="text6"
       x="125.76002"
       y="71.619843">Top</text>
    <path
       d="m 10.163405,12.447382 -3.85e-4,126.130658 230.72,-2e-4 -1.8e-4,-126.129997 z"
       stroke="#000000"
       stroke-width="0.2"
       id="path6"
       sodipodi:nodetypes="ccccc" />
    <ellipse
       style="fill:none;stroke:#000000;stroke-width:0.61;stroke-dasharray:none;stroke-dashoffset:0;stroke-opacity:1"
       id="path32-0-8"
       cx="99.253036"
       cy="-114.71731"
       rx="1.9317782"
       ry="1.9317781"
       transform="rotate(89.47437)" />
    <ellipse
       style="fill:none;stroke:#000000;stroke-width:0.61;stroke-dasharray:none;stroke-dashoffset:0;stroke-opacity:1"
       id="path32-0-8-4"
       cx="122.38445"
       cy="-115.08642"
       rx="1.9317782"
       ry="1.9317781"
       transform="rotate(89.47437)" />
    <ellipse
       style="fill:none;stroke:#000000;stroke-width:0.61;stroke-dasharray:none;stroke-dashoffset:0;stroke-opacity:1"
       id="path32-0-8-6"
       cx="99.589455"
       cy="-94.106201"
       rx="1.9317782"
       ry="1.9317781"
       transform="rotate(89.47437)" />
    <ellipse
       style="fill:none;stroke:#000000;stroke-width:0.61;stroke-dasharray:none;stroke-dashoffset:0;stroke-opacity:1"
       id="path32-0-8-4-4"
       cx="121.97161"
       cy="-94.100708"
       rx="1.9317782"
       ry="1.9317781"
       transform="rotate(89.47437)" />
    <rect
       style="fill:none;stroke:#000000;stroke-width:0.61;stroke-dasharray:none;stroke-dashoffset:0;stroke-opacity:1"
       id="rect32"
       width="4.4951782"
       height="10.301457"
       x="97.476372"
       y="-109.34811"
       transform="rotate(89.47437)" />
    <rect
       style="fill:none;stroke:#000000;stroke-width:0.61;stroke-dasharray:none;stroke-dashoffset:0;stroke-opacity:1"
       id="rect33"
       width="12.819193"
       height="22.819193"
       x="66.117088"
       y="-89.734207"
       transform="rotate(89.47437)" />
    <rect
       style="fill:none;stroke:#000000;stroke-width:0.61;stroke-dasharray:none;stroke-dashoffset:0;stroke-opacity:1"
       id="rect33-3"
       width="12.819193"
       height="22.819193"
       x="-38.697506"
       y="-109.26235"
       transform="rotate(179.73441)" />
    <rect
       style="fill:none;stroke:#000000;stroke-width:0.61;stroke-dasharray:none;stroke-dashoffset:0;stroke-opacity:1"
       id="rect33-0"
       width="12.819193"
       height="22.819193"
       x="66.18808"
       y="-129.61197"
       transform="rotate(89.47437)" />
    <rect
       style="fill:none;stroke:#000000;stroke-width:0.61;stroke-dasharray:none;stroke-dashoffset:0;stroke-opacity:1"
       id="rect33-9"
       width="12.819193"
       height="22.819193"
       x="66.709511"
       y="-167.43666"
       transform="rotate(89.47437)" />
    <circle
       style="fill:none;stroke:#000000;stroke-width:0.61;stroke-dasharray:none;stroke-dashoffset:0;stroke-opacity:1"
       id="path32-03"
       cx="188.64319"
       cy="172.59056"
       r="3.7459815" />
    <circle
       style="fill:none;stroke:#000000;stroke-width:0.61;stroke-dasharray:none;stroke-dashoffset:0;stroke-opacity:1"
       id="path32-3"
       cx="164.40672"
       cy="172.62079"
       r="3.7459815" />
    <circle
       style="fill:none;stroke:#000000;stroke-width:0.61;stroke-dasharray:none;stroke-dashoffset:0;stroke-opacity:1"
       id="path32-0"
       cx="140.04681"
       cy="172.8205"
       r="3.7459815" />
  </g>
  <g
     id="p-6"
     style="fill:none;stroke-linecap:round;stroke-linejoin:round"
     transform="translate(7.260216,-0.66001963)">
    <path
       d="m 255.2,139.6 h -2.5 c -0.1,0 0,0.1 0,0 v -2.4 c 0,-0.1 -0.1,0 0,0 h 5 c 0.1,0 0,-0.1 0,0 v 2.4 c 0,0.1 0.1,0 0,0 z"
       stroke="#0000ff"
       stroke-width="0.2"
       id="path7" />
    <path
       d="m 265.6,139.6 h -2.5 c -0.1,0 0,0.1 0,0 v -2.4 c 0,-0.1 -0.1,0 0,0 h 5 c 0.1,0 0,-0.1 0,0 v 2.4 c 0,0.1 0.1,0 0,0 z"
       stroke="#0000ff"
       stroke-width="0.2"
       id="path8" />
    <path
       d="m 276,139.6 h -2.5 c -0.1,0 0,0.1 0,0 v -2.4 c 0,-0.1 -0.1,0 0,0 h 5 c 0.1,0 0,-0.1 0,0 v 2.4 c 0,0.1 0.1,0 0,0 z"
       stroke="#0000ff"
       stroke-width="0.2"
       id="path9" />
    <path
       d="m 286.4,139.6 h -2.5 c -0.1,0 0,0.1 0,0 v -2.4 c 0,-0.1 -0.1,0 0,0 h 5 c 0.1,0 0,-0.1 0,0 v 2.4 c 0,0.1 0.1,0 0,0 z"
       stroke="#0000ff"
       stroke-width="0.2"
       id="path10" />
    <path
       d="m 296.8,139.6 h -2.5 c -0.1,0 0,0.1 0,0 v -2.4 c 0,-0.1 -0.1,0 0,0 h 5 c 0.1,0 0,-0.1 0,0 v 2.4 c 0,0.1 0.1,0 0,0 z"
       stroke="#0000ff"
       stroke-width="0.2"
       id="path11" />
    <path
       d="m 307.2,139.6 h -2.5 c -0.1,0 0,0.1 0,0 v -2.4 c 0,-0.1 -0.1,0 0,0 h 5 c 0.1,0 0,-0.1 0,0 v 2.4 c 0,0.1 0.1,0 0,0 z"
       stroke="#0000ff"
       stroke-width="0.2"
       id="path12" />
    <path
       d="m 317.6,139.6 h -2.5 c -0.1,0 0,0.1 0,0 v -2.4 c 0,-0.1 -0.1,0 0,0 h 5 c 0.1,0 0,-0.1 0,0 v 2.4 c 0,0.1 0.1,0 0,0 z"
       stroke="#0000ff"
       stroke-width="0.2"
       id="path13" />
    <path
       d="m 328,139.6 h -2.5 c -0.1,0 0,0.1 0,0 v -2.4 c 0,-0.1 -0.1,0 0,0 h 5 c 0.1,0 0,-0.1 0,0 v 2.4 c 0,0.1 0.1,0 0,0 z"
       stroke="#0000ff"
       stroke-width="0.2"
       id="path14" />
    <path
       d="m 338.4,139.6 h -2.5 c -0.1,0 0,0.1 0,0 v -2.4 c 0,-0.1 -0.1,0 0,0 h 5 c 0.1,0 0,-0.1 0,0 v 2.4 c 0,0.1 0.1,0 0,0 z"
       stroke="#0000ff"
       stroke-width="0.2"
       id="path15" />
    <path
       d="m 348.8,139.6 h -2.5 c -0.1,0 0,0.1 0,0 v -2.4 c 0,-0.1 -0.1,0 0,0 h 5 c 0.1,0 0,-0.1 0,0 v 2.4 c 0,0.1 0.1,0 0,0 z"
       stroke="#0000ff"
       stroke-width="0.2"
       id="path16" />
    <path
       d="m 359.2,139.6 h -2.5 c -0.1,0 0,0.1 0,0 v -2.4 c 0,-0.1 -0.1,0 0,0 h 5 c 0.1,0 0,-0.1 0,0 v 2.4 c 0,0.1 0.1,0 0,0 z"
       stroke="#0000ff"
       stroke-width="0.2"
       id="path17" />
    <path
       d="m 369.6,139.6 h -2.5 c -0.1,0 0,0.1 0,0 v -2.4 c 0,-0.1 -0.1,0 0,0 h 5 c 0.1,0 0,-0.1 0,0 v 2.4 c 0,0.1 0.1,0 0,0 z"
       stroke="#0000ff"
       stroke-width="0.2"
       id="path18" />
    <path
       d="m 380,139.6 h -2.5 c -0.1,0 0,0.1 0,0 v -2.4 c 0,-0.1 -0.1,0 0,0 h 5 c 0.1,0 0,-0.1 0,0 v 2.4 c 0,0.1 0.1,0 0,0 z"
       stroke="#0000ff"
       stroke-width="0.2"
       id="path19" />
    <path
       d="m 390.4,139.6 h -2.5 c -0.1,0 0,0.1 0,0 v -2.4 c 0,-0.1 -0.1,0 0,0 h 5 c 0.1,0 0,-0.1 0,0 v 2.4 c 0,0.1 0.1,0 0,0 z"
       stroke="#0000ff"
       stroke-width="0.2"
       id="path20" />
    <path
       d="m 400.8,139.6 h -2.5 c -0.1,0 0,0.1 0,0 v -2.4 c 0,-0.1 -0.1,0 0,0 h 5 c 0.1,0 0,-0.1 0,0 v 2.4 c 0,0.1 0.1,0 0,0 z"
       stroke="#0000ff"
       stroke-width="0.2"
       id="path21" />
    <path
       d="m 411.2,139.6 h -2.5 c -0.1,0 0,0.1 0,0 v -2.4 c 0,-0.1 -0.1,0 0,0 h 5 c 0.1,0 0,-0.1 0,0 v 2.4 c 0,0.1 0.1,0 0,0 z"
       stroke="#0000ff"
       stroke-width="0.2"
       id="path22" />
    <path
       d="m 421.6,139.6 h -2.5 c -0.1,0 0,0.1 0,0 v -2.4 c 0,-0.1 -0.1,0 0,0 h 5 c 0.1,0 0,-0.1 0,0 v 2.4 c 0,0.1 0.1,0 0,0 z"
       stroke="#0000ff"
       stroke-width="0.2"
       id="path23" />
    <path
       d="m 432,139.6 h -2.5 c -0.1,0 0,0.1 0,0 v -2.4 c 0,-0.1 -0.1,0 0,0 h 5 c 0.1,0 0,-0.1 0,0 v 2.4 c 0,0.1 0.1,0 0,0 z"
       stroke="#0000ff"
       stroke-width="0.2"
       id="path24" />
    <path
       d="m 442.4,139.6 h -2.5 c -0.1,0 0,0.1 0,0 v -2.4 c 0,-0.1 -0.1,0 0,0 h 5 c 0.1,0 0,-0.1 0,0 v 2.4 c 0,0.1 0.1,0 0,0 z"
       stroke="#0000ff"
       stroke-width="0.2"
       id="path25" />
    <path
       d="m 452.8,139.6 h -2.5 c -0.1,0 0,0.1 0,0 v -2.4 c 0,-0.1 -0.1,0 0,0 h 5 c 0.1,0 0,-0.1 0,0 v 2.4 c 0,0.1 0.1,0 0,0 z"
       stroke="#0000ff"
       stroke-width="0.2"
       id="path26" />
    <path
       d="m 463.2,139.6 h -2.5 c -0.1,0 0,0.1 0,0 v -2.4 c 0,-0.1 -0.1,0 0,0 h 5 c 0.1,0 0,-0.1 0,0 v 2.4 c 0,0.1 0.1,0 0,0 z"
       stroke="#0000ff"
       stroke-width="0.2"
       id="path27" />
    <text
       dominant-baseline="hanging"
       font-size="4px"
       style="font-style:normal;font-weight:normal;font-family:sans-serif;fill:#ff0000"
       text-anchor="middle"
       transform="translate(359.2,74.3)"
       id="text27"><tspan
         sodipodi:role="line"
         id="tspan71"
         x="0"
         y="0">bottom</tspan><tspan
         sodipodi:role="line"
         x="0"
         y="5"
         id="tspan73" /><tspan
         sodipodi:role="line"
         id="tspan72"
         x="0"
         y="10" /></text>
    <path
       d="m 246.8,142.4 h 224.8 5.2 c 0.055,0 0.1,-0.045 0.1,-0.1 V 137.1 15.3 10.1 c 0,-0.055 -0.045,-0.1 -0.1,-0.1 h -5.2 -224.8 -5.2 c -0.055,0 -0.1,0.045 -0.1,0.1 v 5.2 121.8 5.2 c 0,0.055 0.045,0.1 0.1,0.1 h 5.2"
       stroke="#000000"
       stroke-width="0.2"
       id="path28" />
    <path
       d="m 474.1,128.2 v 2.5 c 0,0.1 0.1,0 0,0 h -2.4 c -0.1,0 0,0.1 0,0 v -5 c 0,-0.1 -0.1,0 0,0 h 2.4 c 0.1,0 0,-0.1 0,0 z"
       stroke="#0000ff"
       stroke-width="0.2"
       id="path29" />
    <path
       d="m 474.1,117.8 v 2.5 c 0,0.1 0.1,0 0,0 h -2.4 c -0.1,0 0,0.1 0,0 v -5 c 0,-0.1 -0.1,0 0,0 h 2.4 c 0.1,0 0,-0.1 0,0 z"
       stroke="#0000ff"
       stroke-width="0.2"
       id="path30" />
    <path
       d="m 474.1,107.4 v 2.5 c 0,0.1 0.1,0 0,0 h -2.4 c -0.1,0 0,0.1 0,0 v -5 c 0,-0.1 -0.1,0 0,0 h 2.4 c 0.1,0 0,-0.1 0,0 z"
       stroke="#0000ff"
       stroke-width="0.2"
       id="path31" />
    <path
       d="m 474.1,97 v 2.5 c 0,0.1 0.1,0 0,0 h -2.4 c -0.1,0 0,0.1 0,0 v -5 c 0,-0.1 -0.1,0 0,0 h 2.4 c 0.1,0 0,-0.1 0,0 z"
       stroke="#0000ff"
       stroke-width="0.2"
       id="path32" />
    <path
       d="m 474.1,86.6 v 2.5 c 0,0.1 0.1,0 0,0 h -2.4 c -0.1,0 0,0.1 0,0 v -5 c 0,-0.1 -0.1,0 0,0 h 2.4 c 0.1,0 0,-0.1 0,0 z"
       stroke="#0000ff"
       stroke-width="0.2"
       id="path33" />
    <path
       d="m 474.1,76.2 v 2.5 c 0,0.1 0.1,0 0,0 h -2.4 c -0.1,0 0,0.1 0,0 v -5 c 0,-0.1 -0.1,0 0,0 h 2.4 c 0.1,0 0,-0.1 0,0 z"
       stroke="#0000ff"
       stroke-width="0.2"
       id="path34" />
    <path
       d="m 474.1,65.8 v 2.5 c 0,0.1 0.1,0 0,0 h -2.4 c -0.1,0 0,0.1 0,0 v -5 c 0,-0.1 -0.1,0 0,0 h 2.4 c 0.1,0 0,-0.1 0,0 z"
       stroke="#0000ff"
       stroke-width="0.2"
       id="path35" />
    <path
       d="m 474.1,55.4 v 2.5 c 0,0.1 0.1,0 0,0 h -2.4 c -0.1,0 0,0.1 0,0 v -5 c 0,-0.1 -0.1,0 0,0 h 2.4 c 0.1,0 0,-0.1 0,0 z"
       stroke="#0000ff"
       stroke-width="0.2"
       id="path36" />
    <path
       d="m 474.1,45 v 2.5 c 0,0.1 0.1,0 0,0 h -2.4 c -0.1,0 0,0.1 0,0 v -5 c 0,-0.1 -0.1,0 0,0 h 2.4 c 0.1,0 0,-0.1 0,0 z"
       stroke="#0000ff"
       stroke-width="0.2"
       id="path37" />
    <path
       d="m 474.1,34.6 v 2.5 c 0,0.1 0.1,0 0,0 h -2.4 c -0.1,0 0,0.1 0,0 v -5 c 0,-0.1 -0.1,0 0,0 h 2.4 c 0.1,0 0,-0.1 0,0 z"
       stroke="#0000ff"
       stroke-width="0.2"
       id="path38" />
    <path
       d="m 474.1,24.2 v 2.5 c 0,0.1 0.1,0 0,0 h -2.4 c -0.1,0 0,0.1 0,0 v -5 c 0,-0.1 -0.1,0 0,0 h 2.4 c 0.1,0 0,-0.1 0,0 z"
       stroke="#0000ff"
       stroke-width="0.2"
       id="path39" />
    <path
       d="m 463.2,12.8 h 2.5 c 0.1,0 0,-0.1 0,0 v 2.4 c 0,0.1 0.1,0 0,0 h -5 c -0.1,0 0,0.1 0,0 v -2.4 c 0,-0.1 -0.1,0 0,0 z"
       stroke="#0000ff"
       stroke-width="0.2"
       id="path40" />
    <path
       d="m 452.8,12.8 h 2.5 c 0.1,0 0,-0.1 0,0 v 2.4 c 0,0.1 0.1,0 0,0 h -5 c -0.1,0 0,0.1 0,0 v -2.4 c 0,-0.1 -0.1,0 0,0 z"
       stroke="#0000ff"
       stroke-width="0.2"
       id="path41" />
    <path
       d="m 442.4,12.8 h 2.5 c 0.1,0 0,-0.1 0,0 v 2.4 c 0,0.1 0.1,0 0,0 h -5 c -0.1,0 0,0.1 0,0 v -2.4 c 0,-0.1 -0.1,0 0,0 z"
       stroke="#0000ff"
       stroke-width="0.2"
       id="path42" />
    <path
       d="m 432,12.8 h 2.5 c 0.1,0 0,-0.1 0,0 v 2.4 c 0,0.1 0.1,0 0,0 h -5 c -0.1,0 0,0.1 0,0 v -2.4 c 0,-0.1 -0.1,0 0,0 z"
       stroke="#0000ff"
       stroke-width="0.2"
       id="path43" />
    <path
       d="m 421.6,12.8 h 2.5 c 0.1,0 0,-0.1 0,0 v 2.4 c 0,0.1 0.1,0 0,0 h -5 c -0.1,0 0,0.1 0,0 v -2.4 c 0,-0.1 -0.1,0 0,0 z"
       stroke="#0000ff"
       stroke-width="0.2"
       id="path44" />
    <path
       d="m 411.2,12.8 h 2.5 c 0.1,0 0,-0.1 0,0 v 2.4 c 0,0.1 0.1,0 0,0 h -5 c -0.1,0 0,0.1 0,0 v -2.4 c 0,-0.1 -0.1,0 0,0 z"
       stroke="#0000ff"
       stroke-width="0.2"
       id="path45" />
    <path
       d="m 400.8,12.8 h 2.5 c 0.1,0 0,-0.1 0,0 v 2.4 c 0,0.1 0.1,0 0,0 h -5 c -0.1,0 0,0.1 0,0 v -2.4 c 0,-0.1 -0.1,0 0,0 z"
       stroke="#0000ff"
       stroke-width="0.2"
       id="path46" />
    <path
       d="m 390.4,12.8 h 2.5 c 0.1,0 0,-0.1 0,0 v 2.4 c 0,0.1 0.1,0 0,0 h -5 c -0.1,0 0,0.1 0,0 v -2.4 c 0,-0.1 -0.1,0 0,0 z"
       stroke="#0000ff"
       stroke-width="0.2"
       id="path47" />
    <path
       d="m 380,12.8 h 2.5 c 0.1,0 0,-0.1 0,0 v 2.4 c 0,0.1 0.1,0 0,0 h -5 c -0.1,0 0,0.1 0,0 v -2.4 c 0,-0.1 -0.1,0 0,0 z"
       stroke="#0000ff"
       stroke-width="0.2"
       id="path48" />
    <path
       d="m 369.6,12.8 h 2.5 c 0.1,0 0,-0.1 0,0 v 2.4 c 0,0.1 0.1,0 0,0 h -5 c -0.1,0 0,0.1 0,0 v -2.4 c 0,-0.1 -0.1,0 0,0 z"
       stroke="#0000ff"
       stroke-width="0.2"
       id="path49" />
    <path
       d="m 359.2,12.8 h 2.5 c 0.1,0 0,-0.1 0,0 v 2.4 c 0,0.1 0.1,0 0,0 h -5 c -0.1,0 0,0.1 0,0 v -2.4 c 0,-0.1 -0.1,0 0,0 z"
       stroke="#0000ff"
       stroke-width="0.2"
       id="path50" />
    <path
       d="m 348.8,12.8 h 2.5 c 0.1,0 0,-0.1 0,0 v 2.4 c 0,0.1 0.1,0 0,0 h -5 c -0.1,0 0,0.1 0,0 v -2.4 c 0,-0.1 -0.1,0 0,0 z"
       stroke="#0000ff"
       stroke-width="0.2"
       id="path51" />
    <path
       d="m 338.4,12.8 h 2.5 c 0.1,0 0,-0.1 0,0 v 2.4 c 0,0.1 0.1,0 0,0 h -5 c -0.1,0 0,0.1 0,0 v -2.4 c 0,-0.1 -0.1,0 0,0 z"
       stroke="#0000ff"
       stroke-width="0.2"
       id="path52" />
    <path
       d="m 328,12.8 h 2.5 c 0.1,0 0,-0.1 0,0 v 2.4 c 0,0.1 0.1,0 0,0 h -5 c -0.1,0 0,0.1 0,0 v -2.4 c 0,-0.1 -0.1,0 0,0 z"
       stroke="#0000ff"
       stroke-width="0.2"
       id="path53" />
    <path
       d="m 317.6,12.8 h 2.5 c 0.1,0 0,-0.1 0,0 v 2.4 c 0,0.1 0.1,0 0,0 h -5 c -0.1,0 0,0.1 0,0 v -2.4 c 0,-0.1 -0.1,0 0,0 z"
       stroke="#0000ff"
       stroke-width="0.2"
       id="path54" />
    <path
       d="m 307.2,12.8 h 2.5 c 0.1,0 0,-0.1 0,0 v 2.4 c 0,0.1 0.1,0 0,0 h -5 c -0.1,0 0,0.1 0,0 v -2.4 c 0,-0.1 -0.1,0 0,0 z"
       stroke="#0000ff"
       stroke-width="0.2"
       id="path55" />
    <path
       d="m 296.8,12.8 h 2.5 c 0.1,0 0,-0.1 0,0 v 2.4 c 0,0.1 0.1,0 0,0 h -5 c -0.1,0 0,0.1 0,0 v -2.4 c 0,-0.1 -0.1,0 0,0 z"
       stroke="#0000ff"
       stroke-width="0.2"
       id="path56" />
    <path
       d="m 286.4,12.8 h 2.5 c 0.1,0 0,-0.1 0,0 v 2.4 c 0,0.1 0.1,0 0,0 h -5 c -0.1,0 0,0.1 0,0 v -2.4 c 0,-0.1 -0.1,0 0,0 z"
       stroke="#0000ff"
       stroke-width="0.2"
       id="path57" />
    <path
       d="m 276,12.8 h 2.5 c 0.1,0 0,-0.1 0,0 v 2.4 c 0,0.1 0.1,0 0,0 h -5 c -0.1,0 0,0.1 0,0 v -2.4 c 0,-0.1 -0.1,0 0,0 z"
       stroke="#0000ff"
       stroke-width="0.2"
       id="path58" />
    <path
       d="m 265.6,12.8 h 2.5 c 0.1,0 0,-0.1 0,0 v 2.4 c 0,0.1 0.1,0 0,0 h -5 c -0.1,0 0,0.1 0,0 v -2.4 c 0,-0.1 -0.1,0 0,0 z"
       stroke="#0000ff"
       stroke-width="0.2"
       id="path59" />
    <path
       d="m 255.2,12.8 h 2.5 c 0.1,0 0,-0.1 0,0 v 2.4 c 0,0.1 0.1,0 0,0 h -5 c -0.1,0 0,0.1 0,0 v -2.4 c 0,-0.1 -0.1,0 0,0 z"
       stroke="#0000ff"
       stroke-width="0.2"
       id="path60" />
    <path
       d="m 244.3,24.2 v -2.5 c 0,-0.1 -0.1,0 0,0 h 2.4 c 0.1,0 0,-0.1 0,0 v 5 c 0,0.1 0.1,0 0,0 h -2.4 c -0.1,0 0,0.1 0,0 z"
       stroke="#0000ff"
       stroke-width="0.2"
       id="path61" />
    <path
       d="m 244.3,34.6 v -2.5 c 0,-0.1 -0.1,0 0,0 h 2.4 c 0.1,0 0,-0.1 0,0 v 5 c 0,0.1 0.1,0 0,0 h -2.4 c -0.1,0 0,0.1 0,0 z"
       stroke="#0000ff"
       stroke-width="0.2"
       id="path62" />
    <path
       d="m 244.3,45 v -2.5 c 0,-0.1 -0.1,0 0,0 h 2.4 c 0.1,0 0,-0.1 0,0 v 5 c 0,0.1 0.1,0 0,0 h -2.4 c -0.1,0 0,0.1 0,0 z"
       stroke="#0000ff"
       stroke-width="0.2"
       id="path63" />
    <path
       d="m 244.3,55.4 v -2.5 c 0,-0.1 -0.1,0 0,0 h 2.4 c 0.1,0 0,-0.1 0,0 v 5 c 0,0.1 0.1,0 0,0 h -2.4 c -0.1,0 0,0.1 0,0 z"
       stroke="#0000ff"
       stroke-width="0.2"
       id="path64" />
    <path
       d="m 244.3,65.8 v -2.5 c 0,-0.1 -0.1,0 0,0 h 2.4 c 0.1,0 0,-0.1 0,0 v 5 c 0,0.1 0.1,0 0,0 h -2.4 c -0.1,0 0,0.1 0,0 z"
       stroke="#0000ff"
       stroke-width="0.2"
       id="path65" />
    <path
       d="m 244.3,76.2 v -2.5 c 0,-0.1 -0.1,0 0,0 h 2.4 c 0.1,0 0,-0.1 0,0 v 5 c 0,0.1 0.1,0 0,0 h -2.4 c -0.1,0 0,0.1 0,0 z"
       stroke="#0000ff"
       stroke-width="0.2"
       id="path66" />
    <path
       d="m 244.3,86.6 v -2.5 c 0,-0.1 -0.1,0 0,0 h 2.4 c 0.1,0 0,-0.1 0,0 v 5 c 0,0.1 0.1,0 0,0 h -2.4 c -0.1,0 0,0.1 0,0 z"
       stroke="#0000ff"
       stroke-width="0.2"
       id="path67" />
    <path
       d="m 244.3,97 v -2.5 c 0,-0.1 -0.1,0 0,0 h 2.4 c 0.1,0 0,-0.1 0,0 v 5 c 0,0.1 0.1,0 0,0 h -2.4 c -0.1,0 0,0.1 0,0 z"
       stroke="#0000ff"
       stroke-width="0.2"
       id="path68" />
    <path
       d="m 244.3,107.4 v -2.5 c 0,-0.1 -0.1,0 0,0 h 2.4 c 0.1,0 0,-0.1 0,0 v 5 c 0,0.1 0.1,0 0,0 h -2.4 c -0.1,0 0,0.1 0,0 z"
       stroke="#0000ff"
       stroke-width="0.2"
       id="path69" />
    <path
       d="m 244.3,117.8 v -2.5 c 0,-0.1 -0.1,0 0,0 h 2.4 c 0.1,0 0,-0.1 0,0 v 5 c 0,0.1 0.1,0 0,0 h -2.4 c -0.1,0 0,0.1 0,0 z"
       stroke="#0000ff"
       stroke-width="0.2"
       id="path70" />
    <path
       d="m 244.3,128.2 v -2.5 c 0,-0.1 -0.1,0 0,0 h 2.4 c 0.1,0 0,-0.1 0,0 v 5 c 0,0.1 0.1,0 0,0 h -2.4 c -0.1,0 0,0.1 0,0 z"
       stroke="#0000ff"
       stroke-width="0.2"
       id="path71" />
  </g>
  <circle
     style="fill:none;stroke:#000000;stroke-width:0.264852;stroke-dasharray:none"
     id="path74"
     cx="211.41295"
     cy="356.77692"
     r="14.867574" />
  <g
     id="g75"
     transform="translate(15.399298,1.3999362)">
    <g
       id="p-3"
       style="fill:none;stroke-linecap:round;stroke-linejoin:round">
      <text
         dominant-baseline="hanging"
         font-size="4px"
         style="font-style:normal;font-weight:normal;font-family:sans-serif;fill:#ff0000"
         text-anchor="middle"
         transform="translate(305.1,201.9)"
         id="text4">Wall 4</text>
      <path
         d="m 244.2,261.3 c -0.055,0 -0.1,-0.045 -0.1,-0.1 v -7.9 c 0,-0.1 0.1,0 0,0 h -2.5 c -0.055,0 -0.1,-0.045 -0.1,-0.1 V 248 c 0,-0.055 0.045,-0.1 0.1,-0.1 h 2.5 c 0.1,0 0,0.1 0,0 v -5 c 0,-0.1 0.1,0 0,0 h -2.5 c -0.055,0 -0.1,-0.045 -0.1,-0.1 v -5.2 c 0,-0.055 0.045,-0.1 0.1,-0.1 h 2.5 c 0.1,0 0,0.1 0,0 v -5 c 0,-0.1 0.1,0 0,0 h -2.5 c -0.055,0 -0.1,-0.045 -0.1,-0.1 v -5.2 c 0,-0.055 0.045,-0.1 0.1,-0.1 h 2.5 c 0.1,0 0,0.1 0,0 v -5 c 0,-0.1 0.1,0 0,0 h -2.5 c -0.055,0 -0.1,-0.045 -0.1,-0.1 v -5.2 c 0,-0.055 0.045,-0.1 0.1,-0.1 h 2.5 c 0.1,0 0,0.1 0,0 v -5 c 0,-0.1 0.1,0 0,0 h -2.5 c -0.055,0 -0.1,-0.045 -0.1,-0.1 v -5.2 c 0,-0.055 0.045,-0.1 0.1,-0.1 h 2.5 c 0.1,0 0,0.1 0,0 v -5 c 0,-0.1 0.1,0 0,0 h -2.5 c -0.055,0 -0.1,-0.045 -0.1,-0.1 V 196 c 0,-0.055 0.045,-0.1 0.1,-0.1 h 2.5 c 0.1,0 0,0.1 0,0 v -5 c 0,-0.1 0.1,0 0,0 h -2.5 c -0.055,0 -0.1,-0.045 -0.1,-0.1 v -5.2 c 0,-0.055 0.045,-0.1 0.1,-0.1 h 2.5 c 0.1,0 0,0.1 0,0 v -5 c 0,-0.1 0.1,0 0,0 h -2.5 c -0.055,0 -0.1,-0.045 -0.1,-0.1 v -5.2 c 0,-0.055 0.045,-0.1 0.1,-0.1 h 2.5 c 0.1,0 0,0.1 0,0 v -5 c 0,-0.1 0.1,0 0,0 h -2.5 c -0.055,0 -0.1,-0.045 -0.1,-0.1 v -5.2 c 0,-0.055 0.045,-0.1 0.1,-0.1 h 2.5 c 0.1,0 0,0.1 0,0 v -5 c 0,-0.1 0.1,0 0,0 h -2.5 c -0.055,0 -0.1,-0.045 -0.1,-0.1 v -5.2 c 0,-0.055 0.045,-0.1 0.1,-0.1 h 2.5 c 0.1,0 -2e-4,0.1 0,0 l 0.0231,-7.67168 c 38.64512,-0.32668 74.88307,-0.21165 112.25432,-0.18272 m 9.76382,0.0217 L 366.1,154.3 c -5.3e-4,0.1 -0.1,0 0,0 h 2.5 c 0.055,0 0.1,0.045 0.1,0.1 v 5.2 c 0,0.055 -0.045,0.1 -0.1,0.1 h -2.5 c -0.1,0 0,-0.1 0,0 v 5 c 0,0.1 -0.1,0 0,0 h 2.5 c 0.055,0 0.1,0.045 0.1,0.1 v 5.2 c 0,0.055 -0.045,0.1 -0.1,0.1 h -2.5 c -0.1,0 0,-0.1 0,0 v 5 c 0,0.1 -0.1,0 0,0 h 2.5 c 0.055,0 0.1,0.045 0.1,0.1 v 5.2 c 0,0.055 -0.045,0.1 -0.1,0.1 h -2.5 c -0.1,0 0,-0.1 0,0 v 5 c 0,0.1 -0.1,0 0,0 h 2.5 c 0.055,0 0.1,0.045 0.1,0.1 v 5.2 c 0,0.055 -0.045,0.1 -0.1,0.1 h -2.5 c -0.1,0 0,-0.1 0,0 v 5 c 0,0.1 -0.1,0 0,0 h 2.5 c 0.055,0 0.1,0.045 0.1,0.1 v 5.2 c 0,0.055 -0.045,0.1 -0.1,0.1 h -2.5 c -0.1,0 0,-0.1 0,0 v 5 c 0,0.1 -0.1,0 0,0 h 2.5 c 0.055,0 0.1,0.045 0.1,0.1 v 5.2 c 0,0.055 -0.045,0.1 -0.1,0.1 h -2.5 c -0.1,0 0,-0.1 0,0 v 5 c 0,0.1 -0.1,0 0,0 h 2.5 c 0.055,0 0.1,0.045 0.1,0.1 v 5.2 c 0,0.055 -0.045,0.1 -0.1,0.1 h -2.5 c -0.1,0 0,-0.1 0,0 v 5 c 0,0.1 -0.1,0 0,0 h 2.5 c 0.055,0 0.1,0.045 0.1,0.1 v 5.2 c 0,0.055 -0.045,0.1 -0.1,0.1 h -2.5 c -0.1,0 0,-0.1 0,0 v 5 c 0,0.1 -0.1,0 0,0 h 2.5 c 0.055,0 0.1,0.045 0.1,0.1 v 5.2 c 0,0.055 -0.045,0.1 -0.1,0.1 h -2.5 c -0.1,0 0,-0.1 0,0 v 5 c 0,0.1 -0.1,0 0,0 h 2.5 c 0.055,0 0.1,0.045 0.1,0.1 v 5.2 c 0,0.055 -0.045,0.1 -0.1,0.1 h -2.5 c -0.1,0 0,-0.1 0,0 v 7.9 c 0,0.055 -0.045,0.1 -0.1,0.1 h -6.2 c -0.1,0 0,-0.1 0,0 v 2.5 c 0,0.055 -0.045,0.1 -0.1,0.1 h -5.2 c -0.055,0 -0.1,-0.045 -0.1,-0.1 v -2.5 c 0,-0.1 0.1,0 0,0 h -5 c -0.1,0 0,-0.1 0,0 v 2.5 c 0,0.055 -0.045,0.1 -0.1,0.1 h -5.2 c -0.055,0 -0.1,-0.045 -0.1,-0.1 v -2.5 c 0,-0.1 0.1,0 0,0 h -5 c -0.1,0 0,-0.1 0,0 v 2.5 c 0,0.055 -0.045,0.1 -0.1,0.1 h -5.2 c -0.055,0 -0.1,-0.045 -0.1,-0.1 v -2.5 c 0,-0.1 0.1,0 0,0 h -5 c -0.1,0 0,-0.1 0,0 v 2.5 c 0,0.055 -0.045,0.1 -0.1,0.1 h -5.2 c -0.055,0 -0.1,-0.045 -0.1,-0.1 v -2.5 c 0,-0.1 0.1,0 0,0 h -5 c -0.1,0 0,-0.1 0,0 v 2.5 c 0,0.055 -0.045,0.1 -0.1,0.1 h -5.2 c -0.055,0 -0.1,-0.045 -0.1,-0.1 v -2.5 c 0,-0.1 0.1,0 0,0 h -5 c -0.1,0 0,-0.1 0,0 v 2.5 c 0,0.055 -0.045,0.1 -0.1,0.1 h -5.2 c -0.055,0 -0.1,-0.045 -0.1,-0.1 v -2.5 c 0,-0.1 0.1,0 0,0 h -5 c -0.1,0 0,-0.1 0,0 v 2.5 c 0,0.055 -0.045,0.1 -0.1,0.1 h -5.2 c -0.055,0 -0.1,-0.045 -0.1,-0.1 v -2.5 c 0,-0.1 0.1,0 0,0 h -5 c -0.1,0 0,-0.1 0,0 v 2.5 c 0,0.055 -0.045,0.1 -0.1,0.1 h -5.2 c -0.055,0 -0.1,-0.045 -0.1,-0.1 v -2.5 c 0,-0.1 0.1,0 0,0 h -5 c -0.1,0 0,-0.1 0,0 v 2.5 c 0,0.055 -0.045,0.1 -0.1,0.1 h -5.2 c -0.055,0 -0.1,-0.045 -0.1,-0.1 v -2.5 c 0,-0.1 0.1,0 0,0 h -5 c -0.1,0 0,-0.1 0,0 v 2.5 c 0,0.055 -0.045,0.1 -0.1,0.1 h -5.2 c -0.055,0 -0.1,-0.045 -0.1,-0.1 v -2.5 c 0,-0.1 0.1,0 0,0 h -5 c -0.1,0 0,-0.1 0,0 v 2.5 c 0,0.055 -0.045,0.1 -0.1,0.1 h -5.2 c -0.055,0 -0.1,-0.045 -0.1,-0.1 v -2.5 c 0,-0.1 0.1,0 0,0 h -6.2"
         stroke="#000000"
         stroke-width="0.2"
         id="path4"
         sodipodi:nodetypes="cssssssssssssssssssssssssssssssssssssssssssssssssssssssssssssssssssssssssssssssssscccssssssssssssssssssssssssssssssssssssssssssssssssssssssssssssssssssssssssssssssssssssssssssssssssssssssssssssssssssssssssssssssssssssssssssssssssssssssssssssssssssssssssssc" />
    </g>
    <rect
       style="fill:none;stroke:#000000;stroke-width:0.147476;stroke-dasharray:none"
       id="rect73"
       width="1.7138325"
       height="1.7138321"
       x="360.47037"
       y="143.86754" />
    <circle
       style="fill:none;stroke:#000000;stroke-width:0.138292;stroke-dasharray:none"
       id="path73"
       cx="361.28043"
       cy="144.61835"
       r="1.8222967" />
    <a
       id="a75">
      <path
         style="fill:none;stroke:#000000;stroke-width:0.212868;stroke-dasharray:none"
         id="path75"
         sodipodi:type="arc"
         sodipodi:cx="361.25415"
         sodipodi:cy="146.29521"
         sodipodi:rx="4.8935657"
         sodipodi:ry="4.8935661"
         sodipodi:start="3.1207828"
         sodipodi:end="0.039388866"
         sodipodi:arc-type="arc"
         d="m 356.36164,146.39704 a 4.8935657,4.8935661 0 0 1 2.44258,-4.33796 4.8935657,4.8935661 0 0 1 4.97814,0.0463 4.8935657,4.8935661 0 0 1 2.36156,4.38258"
         sodipodi:open="true" />
    </a>
    <rect
       style="fill:none;stroke:#000000;stroke-width:0.183769;stroke-dasharray:none"
       id="rect76-9"
       width="2.2912707"
       height="1.5162306"
       x="-7.5258508"
       y="15.074194" />
    <path
       style="fill:none;stroke:#000000;stroke-width:0.174;stroke-dasharray:none"
       d="m 225.61645,15.048549 h 2.37906 v 1.479116 l -2.37906,0.03564"
       id="path76"
       sodipodi:nodetypes="cccc" />
  </g>
  <g
     id="g76"
     transform="translate(7.3496648,2.0999042)">
    <g
       id="p-3-1"
       style="fill:none;stroke-linecap:round;stroke-linejoin:round"
       transform="translate(1.4549438,120.57201)">
      <text
         dominant-baseline="hanging"
         font-size="4px"
         style="font-style:normal;font-weight:normal;font-family:sans-serif;fill:#ff0000"
         text-anchor="middle"
         transform="translate(305.1,201.9)"
         id="text4-3">Wall 4</text>
      <path
         d="m 244.2,261.3 c -0.055,0 -0.1,-0.045 -0.1,-0.1 v -7.9 c 0,-0.1 0.1,0 0,0 h -2.5 c -0.055,0 -0.1,-0.045 -0.1,-0.1 V 248 c 0,-0.055 0.045,-0.1 0.1,-0.1 h 2.5 c 0.1,0 0,0.1 0,0 v -5 c 0,-0.1 0.1,0 0,0 h -2.5 c -0.055,0 -0.1,-0.045 -0.1,-0.1 v -5.2 c 0,-0.055 0.045,-0.1 0.1,-0.1 h 2.5 c 0.1,0 0,0.1 0,0 v -5 c 0,-0.1 0.1,0 0,0 h -2.5 c -0.055,0 -0.1,-0.045 -0.1,-0.1 v -5.2 c 0,-0.055 0.045,-0.1 0.1,-0.1 h 2.5 c 0.1,0 0,0.1 0,0 v -5 c 0,-0.1 0.1,0 0,0 h -2.5 c -0.055,0 -0.1,-0.045 -0.1,-0.1 v -5.2 c 0,-0.055 0.045,-0.1 0.1,-0.1 h 2.5 c 0.1,0 0,0.1 0,0 v -5 c 0,-0.1 0.1,0 0,0 h -2.5 c -0.055,0 -0.1,-0.045 -0.1,-0.1 v -5.2 c 0,-0.055 0.045,-0.1 0.1,-0.1 h 2.5 c 0.1,0 0,0.1 0,0 v -5 c 0,-0.1 0.1,0 0,0 h -2.5 c -0.055,0 -0.1,-0.045 -0.1,-0.1 V 196 c 0,-0.055 0.045,-0.1 0.1,-0.1 h 2.5 c 0.1,0 0,0.1 0,0 v -5 c 0,-0.1 0.1,0 0,0 h -2.5 c -0.055,0 -0.1,-0.045 -0.1,-0.1 v -5.2 c 0,-0.055 0.045,-0.1 0.1,-0.1 h 2.5 c 0.1,0 0,0.1 0,0 v -5 c 0,-0.1 0.1,0 0,0 h -2.5 c -0.055,0 -0.1,-0.045 -0.1,-0.1 v -5.2 c 0,-0.055 0.045,-0.1 0.1,-0.1 h 2.5 c 0.1,0 0,0.1 0,0 v -5 c 0,-0.1 0.1,0 0,0 h -2.5 c -0.055,0 -0.1,-0.045 -0.1,-0.1 v -5.2 c 0,-0.055 0.045,-0.1 0.1,-0.1 h 2.5 c 0.1,0 0,0.1 0,0 v -5 c 0,-0.1 0.1,0 0,0 h -2.5 c -0.055,0 -0.1,-0.045 -0.1,-0.1 v -5.2 c 0,-0.055 0.045,-0.1 0.1,-0.1 h 2.5 c 0.1,0 -2e-4,0.1 0,0 l 0.0231,-7.67168 m 9.87949,-0.0511 c 38.31384,-0.25629 74.49179,-0.14311 112.14527,-0.13638 L 366.1,154.3 c -6.1e-4,0.1 -0.1,0 0,0 h 2.5 c 0.055,0 0.1,0.045 0.1,0.1 v 5.2 c 0,0.055 -0.045,0.1 -0.1,0.1 h -2.5 c -0.1,0 0,-0.1 0,0 v 5 c 0,0.1 -0.1,0 0,0 h 2.5 c 0.055,0 0.1,0.045 0.1,0.1 v 5.2 c 0,0.055 -0.045,0.1 -0.1,0.1 h -2.5 c -0.1,0 0,-0.1 0,0 v 5 c 0,0.1 -0.1,0 0,0 h 2.5 c 0.055,0 0.1,0.045 0.1,0.1 v 5.2 c 0,0.055 -0.045,0.1 -0.1,0.1 h -2.5 c -0.1,0 0,-0.1 0,0 v 5 c 0,0.1 -0.1,0 0,0 h 2.5 c 0.055,0 0.1,0.045 0.1,0.1 v 5.2 c 0,0.055 -0.045,0.1 -0.1,0.1 h -2.5 c -0.1,0 0,-0.1 0,0 v 5 c 0,0.1 -0.1,0 0,0 h 2.5 c 0.055,0 0.1,0.045 0.1,0.1 v 5.2 c 0,0.055 -0.045,0.1 -0.1,0.1 h -2.5 c -0.1,0 0,-0.1 0,0 v 5 c 0,0.1 -0.1,0 0,0 h 2.5 c 0.055,0 0.1,0.045 0.1,0.1 v 5.2 c 0,0.055 -0.045,0.1 -0.1,0.1 h -2.5 c -0.1,0 0,-0.1 0,0 v 5 c 0,0.1 -0.1,0 0,0 h 2.5 c 0.055,0 0.1,0.045 0.1,0.1 v 5.2 c 0,0.055 -0.045,0.1 -0.1,0.1 h -2.5 c -0.1,0 0,-0.1 0,0 v 5 c 0,0.1 -0.1,0 0,0 h 2.5 c 0.055,0 0.1,0.045 0.1,0.1 v 5.2 c 0,0.055 -0.045,0.1 -0.1,0.1 h -2.5 c -0.1,0 0,-0.1 0,0 v 5 c 0,0.1 -0.1,0 0,0 h 2.5 c 0.055,0 0.1,0.045 0.1,0.1 v 5.2 c 0,0.055 -0.045,0.1 -0.1,0.1 h -2.5 c -0.1,0 0,-0.1 0,0 v 5 c 0,0.1 -0.1,0 0,0 h 2.5 c 0.055,0 0.1,0.045 0.1,0.1 v 5.2 c 0,0.055 -0.045,0.1 -0.1,0.1 h -2.5 c -0.1,0 0,-0.1 0,0 v 7.9 c 0,0.055 -0.045,0.1 -0.1,0.1 h -6.2 c -0.1,0 0,-0.1 0,0 v 2.5 c 0,0.055 -0.045,0.1 -0.1,0.1 h -5.2 c -0.055,0 -0.1,-0.045 -0.1,-0.1 v -2.5 c 0,-0.1 0.1,0 0,0 h -5 c -0.1,0 0,-0.1 0,0 v 2.5 c 0,0.055 -0.045,0.1 -0.1,0.1 h -5.2 c -0.055,0 -0.1,-0.045 -0.1,-0.1 v -2.5 c 0,-0.1 0.1,0 0,0 h -5 c -0.1,0 0,-0.1 0,0 v 2.5 c 0,0.055 -0.045,0.1 -0.1,0.1 h -5.2 c -0.055,0 -0.1,-0.045 -0.1,-0.1 v -2.5 c 0,-0.1 0.1,0 0,0 h -5 c -0.1,0 0,-0.1 0,0 v 2.5 c 0,0.055 -0.045,0.1 -0.1,0.1 h -5.2 c -0.055,0 -0.1,-0.045 -0.1,-0.1 v -2.5 c 0,-0.1 0.1,0 0,0 h -5 c -0.1,0 0,-0.1 0,0 v 2.5 c 0,0.055 -0.045,0.1 -0.1,0.1 h -5.2 c -0.055,0 -0.1,-0.045 -0.1,-0.1 v -2.5 c 0,-0.1 0.1,0 0,0 h -5 c -0.1,0 0,-0.1 0,0 v 2.5 c 0,0.055 -0.045,0.1 -0.1,0.1 h -5.2 c -0.055,0 -0.1,-0.045 -0.1,-0.1 v -2.5 c 0,-0.1 0.1,0 0,0 h -5 c -0.1,0 0,-0.1 0,0 v 2.5 c 0,0.055 -0.045,0.1 -0.1,0.1 h -5.2 c -0.055,0 -0.1,-0.045 -0.1,-0.1 v -2.5 c 0,-0.1 0.1,0 0,0 h -5 c -0.1,0 0,-0.1 0,0 v 2.5 c 0,0.055 -0.045,0.1 -0.1,0.1 h -5.2 c -0.055,0 -0.1,-0.045 -0.1,-0.1 v -2.5 c 0,-0.1 0.1,0 0,0 h -5 c -0.1,0 0,-0.1 0,0 v 2.5 c 0,0.055 -0.045,0.1 -0.1,0.1 h -5.2 c -0.055,0 -0.1,-0.045 -0.1,-0.1 v -2.5 c 0,-0.1 0.1,0 0,0 h -5 c -0.1,0 0,-0.1 0,0 v 2.5 c 0,0.055 -0.045,0.1 -0.1,0.1 h -5.2 c -0.055,0 -0.1,-0.045 -0.1,-0.1 v -2.5 c 0,-0.1 0.1,0 0,0 h -5 c -0.1,0 0,-0.1 0,0 v 2.5 c 0,0.055 -0.045,0.1 -0.1,0.1 h -5.2 c -0.055,0 -0.1,-0.045 -0.1,-0.1 v -2.5 c 0,-0.1 0.1,0 0,0 h -6.2"
         stroke="#000000"
         stroke-width="0.2"
         id="path4-9"
         sodipodi:nodetypes="cssssssssssssssssssssssssssssssssssssssssssssssssssssssssssssssssssssssssssssssssscccssssssssssssssssssssssssssssssssssssssssssssssssssssssssssssssssssssssssssssssssssssssssssssssssssssssssssssssssssssssssssssssssssssssssssssssssssssssssssssssssssssssssssc" />
    </g>
    <path
       style="fill:none;stroke:#000000;stroke-width:0.212868;stroke-dasharray:none"
       id="path75-4"
       d="m 245.6303,267.30632 a 4.8935652,4.8935661 0 0 1 4.81989,-4.94735 4.8935652,4.8935661 0 0 1 4.96606,4.80062"
       sodipodi:type="arc"
       sodipodi:arc-type="arc"
       sodipodi:open="true"
       sodipodi:start="3.1304883"
       sodipodi:end="6.2643041"
       sodipodi:ry="4.8935661"
       sodipodi:rx="4.8935652"
       sodipodi:cy="267.25198"
       sodipodi:cx="250.52356" />
    <rect
       style="fill:none;stroke:#000000;stroke-width:0.147476;stroke-dasharray:none"
       id="rect73-1"
       width="1.7138325"
       height="1.7138321"
       x="249.67535"
       y="264.79431" />
    <circle
       style="fill:none;stroke:#000000;stroke-width:0.138292;stroke-dasharray:none"
       id="path73-0"
       cx="250.48541"
       cy="265.54514"
       r="1.8222967" />
  </g>
</svg>
